<?xml version="1.0" standalone="no"?><!DOCTYPE svg PUBLIC "-//W3C//DTD SVG 1.1//EN" "http://www.w3.org/Graphics/SVG/1.1/DTD/svg11.dtd" ><svg xmlns="http://www.w3.org/2000/svg"><metadata></metadata><defs><font id="BigruixianLightGB4.0" horiz-adv-x="1024"><font-face font-family="BigruixianLightGB4.0" font-weight="400" font-stretch="normal" units-per-em="1024" panose-1="2 1 6 4 0 0 0 0 0 0" ascent="880" descent="-204" x-height="0" bbox="30 -117 988 800" underline-thickness="20" underline-position="-128" unicode-range="U+002b-ff0c" /><missing-glyph horiz-adv-x="0"  /><glyph glyph-name="" unicode="+" d="M292 578 L248 578 L248 362 L30 362 L30 318 L248 318 L248 102 L292 102 L292 318 L510 318 L510 362 L292 362 L292 578 L292 578 L292 578 Z" /><glyph glyph-name="" unicode="9" d="M116 42 L116 -1 Q157 -2 216 6 Q318 25 384 90 Q433 137 464 206 Q503 298 504 406 Q502 545 440 618 Q379 688 288 686 Q181 686 116 614 Q51 544 52 450 Q54 365 104 310 Q164 245 260 246 Q380 247 452 338 Q435 207 362 130 Q296 62 200 48 Q140 40 116 42 L116 42 L116 42 ZM276 646 Q365 645 412 578 Q453 512 452 410 Q451 391 444 378 Q386 289 268 290 Q196 291 148 334 Q102 383 104 450 Q105 533 148 586 Q203 646 276 646 L276 646 L276 646 Z" /><glyph glyph-name="" unicode="&#x3001;" d="M156 188 L352 -35 L396 0 L196 224 L156 188 L156 188 L156 188 Z" /><glyph glyph-name="" unicode="&#x201c;" d="M642 534 L702 546 Q725 672 754 762 L722 758 Q676 676 642 534 L642 534 L642 534 ZM764 534 L824 546 Q847 672 876 762 L844 758 Q798 676 764 534 L764 534 L764 534 Z" /><glyph glyph-name="" unicode="&#x201d;" d="M266 762 L206 750 Q189 624 154 534 L190 538 Q237 620 266 762 L266 762 L266 762 ZM386 762 L326 750 Q309 624 274 534 L310 538 Q357 620 386 762 L386 762 L386 762 Z" /><glyph glyph-name="" unicode="&#xff01;" d="M202 194 L242 194 L254 702 L190 702 L202 194 L202 194 L202 194 ZM222 -1 Q268 -1 266 46 Q265 94 222 94 Q176 94 178 46 Q179 -1 222 -1 L222 -1 L222 -1 Z" /><glyph glyph-name="" unicode="&#xff0c;" d="M88 -117 L128 -113 Q174 -34 208 110 L140 98 Q123 -27 88 -117 L88 -117 L88 -117 Z" /><glyph glyph-name="" unicode="&#x8fb9;" d="M152 768 L96 768 L224 580 L280 580 L152 768 L152 768 L152 768 ZM332 -49 L948 -49 L968 -13 L358 -13 L248 114 L248 490 L64 490 L64 454 L200 454 L200 114 L64 -57 L116 -57 L224 74 L332 -49 L332 -49 L332 -49 ZM632 774 L584 774 L572 630 L328 630 L328 594 L562 594 L336 74 L384 74 L614 594 L880 594 L864 110 L612 110 L632 74 L908 74 L926 630 L620 630 L632 774 L632 774 L632 774 Z" /><glyph glyph-name="" unicode="&#x53d8;" d="M812 630 L764 630 L880 382 L928 382 L812 630 L812 630 L812 630 ZM260 630 L208 630 L88 382 L136 382 L260 630 L260 630 L260 630 ZM526 790 L474 790 L502 738 L80 738 L80 702 L340 702 L340 390 L388 390 L388 702 L640 702 L640 390 L688 390 L688 702 L948 702 L948 738 L556 738 L526 790 L526 790 L526 790 ZM558 112 L892 236 L892 338 L132 338 L132 302 L844 302 L844 262 L508 132 L158 258 L158 216 L454 110 L92 -7 L92 -47 L512 86 L924 -53 L924 -9 L558 112 L558 112 L558 112 Z" /><glyph glyph-name="" unicode="&#x6b65;" d="M270 366 L222 366 L136 122 L184 122 L270 366 L270 366 L270 366 ZM926 182 L926 224 L98 -17 L98 -57 L926 182 L926 182 L926 182 ZM542 680 L542 790 L494 790 L494 462 L252 462 L252 718 L204 718 L204 462 L84 462 L84 426 L934 426 L934 462 L542 462 L542 644 L890 644 L890 680 L542 680 L542 680 L542 680 ZM542 120 L542 382 L494 382 L494 120 L542 120 L542 120 L542 120 Z" /><glyph glyph-name="" unicode="&#x4ece;" d="M292 412 L304 790 L256 790 L244 418 L60 -53 L108 -53 L276 366 L448 114 L502 114 L322 378 L280 378 L292 412 L292 412 L292 412 ZM728 362 L756 410 L772 790 L724 790 L708 426 L460 -53 L512 -53 L724 354 L912 -53 L962 -53 L772 362 L728 362 L728 362 L728 362 Z" /><glyph glyph-name="" unicode="&#x7684;" d="M662 230 L712 230 L632 498 L584 498 L662 230 L662 230 L662 230 ZM916 -49 L924 722 L596 722 L620 792 L572 792 L468 518 L516 518 L584 686 L878 686 L870 -13 L660 -13 L680 -49 L916 -49 L916 -49 L916 -49 ZM156 378 L156 686 L400 686 L400 378 L156 378 L156 378 L156 378 ZM400 342 L400 -13 L156 -13 L156 342 L400 342 L400 342 L400 342 ZM230 722 L108 722 L108 -49 L448 -49 L448 722 L276 722 L296 792 L252 792 L230 722 L230 722 L230 722 Z" /><glyph glyph-name="" unicode="&#x5b9a;" d="M524 790 L472 790 L492 738 L108 738 L108 542 L156 542 L156 702 L872 702 L872 546 L920 546 L920 738 L548 738 L524 790 L524 790 L524 790 ZM144 302 L144 118 L64 -45 L112 -45 L176 82 L380 -49 L910 -49 L930 -13 L538 -13 L538 246 L862 246 L862 282 L538 282 L538 466 L932 466 L932 502 L96 502 L96 466 L490 466 L490 -13 L400 -13 L192 122 L192 302 L144 302 L144 302 L144 302 Z" /><glyph glyph-name="" unicode="&#x61c2;" d="M254 646 L204 646 L248 542 L298 542 L254 646 L254 646 L254 646 ZM128 610 L80 610 L52 382 L100 382 L128 610 L128 610 L128 610 ZM368 278 L576 278 L576 202 L368 202 L368 278 L368 278 L368 278 ZM836 202 L624 202 L624 278 L836 278 L836 202 L836 202 L836 202 ZM368 386 L576 386 L576 314 L368 314 L368 386 L368 386 L368 386 ZM836 314 L624 314 L624 386 L836 386 L836 314 L836 314 L836 314 ZM752 790 L704 790 L704 750 L508 750 L508 790 L460 790 L460 750 L276 750 L276 714 L460 714 L460 658 L508 658 L508 714 L704 714 L704 658 L752 658 L752 714 L944 714 L944 750 L752 750 L752 790 L752 790 L752 790 ZM188 790 L140 790 L140 -53 L188 -53 L188 790 L188 790 L188 790 ZM332 616 L332 580 L576 590 L576 514 L284 514 L284 478 L576 478 L576 422 L320 422 L320 166 L576 166 L576 98 L300 98 L300 62 L576 62 L576 -9 L264 -9 L264 -45 L944 -45 L944 -9 L624 -9 L624 62 L904 62 L904 98 L624 98 L624 166 L884 166 L884 422 L624 422 L624 478 L924 478 L924 514 L624 514 L624 590 L880 602 L880 638 L332 616 L332 616 L332 616 Z" /><glyph glyph-name="" unicode="&#x52a8;" d="M94 694 L442 694 L442 730 L94 730 L94 694 L94 694 L94 694 ZM472 446 L52 446 L52 410 L192 410 L56 -21 L460 -21 L388 246 L340 246 L400 14 L120 14 L240 410 L472 410 L472 446 L472 446 L472 446 ZM720 790 L672 790 L664 694 L460 694 L460 658 L656 658 L488 -53 L532 -53 L704 658 L908 658 L892 -17 L680 -17 L700 -53 L940 -53 L956 694 L712 694 L720 790 L720 790 L720 790 Z" /><glyph glyph-name="" unicode="&#x90fd;" d="M756 38 L776 2 L956 2 L956 410 L908 410 L908 38 L756 38 L756 38 L756 38 ZM156 186 L156 314 L512 314 L512 186 L156 186 L156 186 L156 186 ZM512 150 L512 4 L156 4 L156 150 L512 150 L512 150 L512 150 ZM880 410 L980 746 L646 746 L646 -53 L694 -53 L694 710 L920 710 L832 410 L880 410 L880 410 L880 410 ZM108 -31 L560 -31 L560 350 L160 350 L284 466 L584 466 L584 502 L406 502 L574 660 L574 710 L348 502 L314 502 L314 692 L514 692 L514 728 L314 728 L314 790 L266 790 L266 728 L92 728 L92 692 L266 692 L266 502 L48 502 L48 466 L226 466 L44 292 L44 238 L108 296 L108 -31 L108 -31 L108 -31 Z" /><glyph glyph-name="" unicode="&#x5ea6;" d="M398 400 L398 542 L738 542 L738 400 L398 400 L398 400 L398 400 ZM532 790 L480 790 L504 746 L120 746 L120 214 L82 -53 L130 -53 L168 214 L168 710 L944 710 L944 746 L558 746 L532 790 L532 790 L532 790 ZM600 102 L892 232 L892 284 L232 284 L232 248 L826 248 L554 126 L252 224 L252 184 L494 102 L192 -11 L192 -51 L546 78 L928 -57 L928 -11 L600 102 L600 102 L600 102 ZM350 364 L786 364 L786 542 L930 542 L930 578 L786 578 L786 662 L738 662 L738 578 L398 578 L398 662 L350 662 L350 578 L200 578 L200 542 L350 542 L350 364 L350 364 L350 364 Z" /><glyph glyph-name="" unicode="&#x670d;" d="M148 526 L148 722 L316 722 L316 526 L148 526 L148 526 L148 526 ZM148 274 L148 490 L316 490 L316 274 L148 274 L148 274 L148 274 ZM566 354 L566 298 L710 162 L550 2 L550 -53 L746 130 L946 -53 L946 10 L782 158 L938 318 L938 474 L518 474 L518 722 L890 722 L890 606 L702 606 L722 570 L938 570 L938 758 L470 758 L470 -53 L518 -53 L518 438 L890 438 L890 334 L748 192 L566 354 L566 354 L566 354 ZM316 238 L316 -9 L216 -9 L236 -45 L364 -45 L364 758 L100 758 L100 182 L72 -53 L120 -53 L148 178 L148 238 L316 238 L316 238 L316 238 Z" /><glyph glyph-name="" unicode="&#x8be5;" d="M640 790 L592 790 L640 700 L690 700 L640 790 L640 790 L640 790 ZM300 524 L300 588 L116 768 L116 710 L300 524 L300 524 L300 524 ZM934 -1 L758 158 L926 402 L874 402 L554 -53 L606 -53 L734 126 L934 -57 L934 -1 L934 -1 L934 -1 ZM114 -9 L114 -53 L386 144 L386 190 L194 54 L194 510 L60 510 L60 474 L146 474 L146 16 L114 -9 L114 -9 L114 -9 ZM832 598 L776 598 L636 398 L426 398 L582 654 L956 654 L956 690 L322 690 L322 654 L530 654 L350 362 L612 362 L328 -53 L380 -53 L832 598 L832 598 L832 598 Z" /><glyph glyph-name="" unicode="&#x6539;" d="M68 2 L68 -45 L510 148 L510 194 L152 40 L152 410 L432 410 L432 754 L86 754 L86 718 L384 718 L384 446 L104 446 L104 22 L68 2 L68 2 L68 2 ZM614 488 L564 488 L698 260 L490 -53 L542 -53 L726 216 L894 -53 L946 -53 L754 258 L912 508 L912 680 L960 680 L960 716 L592 716 L604 778 L558 778 L472 370 L516 370 L584 680 L864 680 L864 516 L728 298 L614 488 L614 488 L614 488 Z" /><glyph glyph-name="" unicode="&#x4e2a;" d="M534 610 L486 610 L486 -53 L534 -53 L534 610 L534 610 L534 610 ZM72 482 L512 734 L952 472 L952 524 L512 786 L72 530 L72 482 L72 482 L72 482 Z" /><glyph glyph-name="" unicode="&#x66f4;" d="M536 564 L864 564 L864 436 L536 436 L536 564 L536 564 L536 564 ZM488 436 L160 436 L160 564 L488 564 L488 436 L488 436 L488 436 ZM536 400 L864 400 L864 264 L536 264 L536 400 L536 400 L536 400 ZM488 264 L160 264 L160 400 L488 400 L488 264 L488 264 L488 264 ZM80 756 L80 720 L488 720 L488 600 L112 600 L112 228 L488 228 L488 214 L350 120 L148 162 L148 120 L300 86 L138 -9 L138 -57 L356 70 L948 -47 L948 -7 L404 102 L536 192 L536 228 L912 228 L912 600 L536 600 L536 720 L948 720 L948 756 L80 756 L80 756 L80 756 Z" /><glyph glyph-name="" unicode="&#x5de5;" d="M532 678 L896 678 L896 714 L128 714 L128 678 L484 678 L484 14 L88 14 L88 -21 L940 -21 L940 14 L532 14 L532 678 L532 678 L532 678 Z" /><glyph glyph-name="" unicode="&#x4f9b;" d="M474 142 L420 142 L288 -53 L342 -53 L474 142 L474 142 L474 142 ZM784 142 L730 142 L866 -53 L920 -53 L784 142 L784 142 L784 142 ZM244 790 L196 790 L52 410 L100 410 L244 790 L244 790 L244 790 ZM208 506 L160 506 L160 -53 L208 -53 L208 506 L208 506 L208 506 ZM760 218 L448 218 L448 582 L760 582 L760 218 L760 218 L760 218 ZM808 790 L760 790 L760 618 L448 618 L448 790 L400 790 L400 618 L288 618 L288 582 L400 582 L400 218 L260 218 L260 182 L952 182 L952 218 L808 218 L808 582 L936 582 L936 618 L808 618 L808 790 L808 790 L808 790 Z" /><glyph glyph-name="" unicode="&#x7ba1;" d="M324 706 L508 706 L508 742 L214 742 L240 790 L188 790 L64 562 L114 562 L194 706 L268 706 L368 590 L426 590 L324 706 L324 706 L324 706 ZM192 270 L192 378 L830 378 L830 270 L192 270 L192 270 L192 270 ZM508 602 L460 602 L496 546 L92 546 L92 414 L140 414 L140 510 L888 510 L888 410 L936 410 L936 546 L552 546 L522 594 L552 594 L610 706 L684 706 L788 590 L844 590 L740 706 L948 706 L948 742 L628 742 L652 790 L600 790 L508 602 L508 602 L508 602 ZM852 -9 L192 -9 L192 102 L852 102 L852 -9 L852 -9 L852 -9 ZM900 -45 L900 138 L192 138 L192 234 L878 234 L878 414 L144 414 L144 -45 L900 -45 L900 -45 L900 -45 Z" /><glyph glyph-name="" unicode="&#x597d;" d="M378 594 L230 230 L124 324 L190 594 L378 594 L378 594 L378 594 ZM422 382 L422 346 L720 346 L720 -21 L518 -21 L538 -57 L768 -57 L768 346 L966 346 L966 382 L768 382 L768 486 L912 746 L476 746 L476 710 L840 710 L720 498 L720 382 L422 382 L422 382 L422 382 ZM414 0 L414 60 L264 198 L444 630 L198 630 L230 792 L180 792 L150 630 L56 630 L56 594 L142 594 L74 310 L210 188 L102 -49 L150 -49 L244 158 L414 0 L414 0 L414 0 Z" /><glyph glyph-name="" unicode="&#x548c;" d="M580 734 L580 -27 L936 -27 L936 734 L580 734 L580 734 L580 734 ZM628 8 L628 698 L888 698 L888 8 L628 8 L628 8 L628 8 ZM344 -57 L344 450 L546 450 L546 486 L344 486 L344 710 L522 726 L522 764 L88 726 L88 688 L296 706 L296 486 L68 486 L68 450 L270 450 L60 16 L108 16 L296 422 L296 -57 L344 -57 L344 -57 L344 -57 ZM416 398 L370 398 L482 128 L530 128 L416 398 L416 398 L416 398 Z" /><glyph glyph-name="" unicode="&#x5408;" d="M206 530 L206 494 L806 494 L806 530 L206 530 L206 530 L206 530 ZM70 538 L512 750 L954 546 L954 594 L512 798 L70 586 L70 538 L70 538 L70 538 ZM172 -3 L172 294 L856 294 L856 -3 L172 -3 L172 -3 L172 -3 ZM124 -39 L904 -39 L904 330 L124 330 L124 -39 L124 -39 L124 -39 Z" /><glyph glyph-name="" unicode="&#x4e92;" d="M774 248 L216 248 L272 476 L814 476 L774 248 L774 248 L774 248 ZM156 212 L770 212 L732 -11 L96 -11 L96 -47 L932 -47 L932 -11 L780 -11 L866 512 L284 512 L328 704 L904 704 L904 740 L112 740 L112 704 L280 704 L156 212 L156 212 L156 212 Z" /><glyph glyph-name="" unicode="&#x673a;" d="M258 -53 L258 506 L346 302 L396 302 L304 506 L258 506 L258 586 L398 586 L398 622 L258 622 L258 790 L210 790 L210 622 L62 622 L62 586 L174 586 L74 134 L122 134 L210 576 L210 -53 L258 -53 L258 -53 L258 -53 ZM950 -49 L960 220 L914 256 L904 -13 L836 -13 L836 750 L440 750 L440 210 L336 -53 L384 -53 L488 206 L488 714 L788 714 L788 -49 L950 -49 L950 -49 L950 -49 Z" /><glyph glyph-name="" unicode="&#x79ef;" d="M828 238 L780 238 L912 -53 L962 -53 L828 238 L828 238 L828 238 ZM614 238 L564 238 L420 -53 L468 -53 L614 238 L614 238 L614 238 ZM260 -53 L260 506 L416 506 L416 542 L260 542 L260 722 L396 738 L396 774 L70 738 L70 702 L212 718 L212 542 L62 542 L62 506 L168 506 L60 122 L112 122 L212 506 L212 -53 L260 -53 L260 -53 L260 -53 ZM516 318 L516 698 L888 698 L888 318 L516 318 L516 318 L516 318 ZM936 282 L936 734 L468 734 L468 282 L936 282 L936 282 L936 282 ZM268 432 L350 252 L402 252 L316 432 L268 432 L268 432 L268 432 Z" /><glyph glyph-name="" unicode="&#x7ea7;" d="M58 26 L58 -15 L342 76 L342 118 L58 26 L58 26 L58 26 ZM378 634 L328 634 L244 498 L142 498 L278 790 L230 790 L74 462 L224 462 L68 210 L332 210 L332 250 L144 250 L378 634 L378 634 L378 634 ZM530 392 L530 338 L676 192 L514 2 L514 -57 L708 162 L938 -55 L938 4 L738 194 L938 446 L938 478 L810 478 L922 746 L370 746 L370 710 L418 710 L418 230 L346 -53 L394 -53 L466 222 L466 710 L858 710 L742 442 L878 442 L706 226 L530 392 L530 392 L530 392 Z" /><glyph glyph-name="" unicode="&#x5bb6;" d="M518 790 L470 790 L496 740 L96 740 L96 536 L144 536 L144 704 L880 704 L880 536 L928 536 L928 740 L548 740 L518 790 L518 790 L518 790 ZM724 298 L932 386 L932 430 L628 302 L628 392 L532 498 L544 550 L852 550 L852 586 L188 586 L188 550 L496 550 L488 510 L92 416 L92 376 L496 472 L576 386 L92 210 L92 166 L580 346 L580 214 L88 -9 L88 -53 L580 166 L580 -13 L396 -13 L416 -49 L628 -49 L628 258 L684 282 L880 -49 L932 -49 L724 298 L724 298 L724 298 Z" /><glyph glyph-name="" unicode="&#x4ef7;" d="M268 790 L220 790 L72 378 L122 378 L268 790 L268 790 L268 790 ZM208 474 L160 474 L160 -53 L208 -53 L208 474 L208 474 L208 474 ZM850 530 L802 530 L802 -53 L850 -53 L850 530 L850 530 L850 530 ZM324 -53 L372 -53 L434 194 L434 530 L386 530 L386 202 L324 -53 L324 -53 L324 -53 ZM284 508 L618 742 L956 510 L956 562 L616 790 L284 558 L284 508 L284 508 L284 508 Z" /><glyph glyph-name="" unicode="&#x8fdb;" d="M152 790 L104 790 L228 582 L278 582 L152 790 L152 790 L152 790 ZM60 496 L60 460 L144 460 L144 136 L56 -51 L100 -51 L168 88 L276 -43 L952 -43 L972 -7 L300 -7 L192 124 L192 496 L60 496 L60 496 L60 496 ZM820 350 L460 350 L460 646 L820 646 L820 350 L820 350 L820 350 ZM868 790 L820 790 L820 682 L460 682 L460 790 L412 790 L412 682 L308 682 L308 646 L412 646 L412 350 L284 350 L284 314 L410 314 L316 48 L360 48 L456 314 L820 314 L820 48 L868 48 L868 314 L968 314 L968 350 L868 350 L868 646 L956 646 L956 682 L868 682 L868 790 L868 790 L868 790 Z" /><glyph glyph-name="" unicode="&#x5177;" d="M62 128 L62 92 L962 92 L962 128 L894 128 L894 756 L130 756 L130 128 L62 128 L62 128 L62 128 ZM178 284 L178 412 L846 412 L846 284 L178 284 L178 284 L178 284 ZM178 448 L178 572 L846 572 L846 448 L178 448 L178 448 L178 448 ZM846 248 L846 128 L178 128 L178 248 L846 248 L846 248 L846 248 ZM178 608 L178 720 L846 720 L846 608 L178 608 L178 608 L178 608 ZM650 24 L936 -45 L936 -1 L650 68 L650 24 L650 24 L650 24 ZM102 -5 L102 -49 L380 26 L380 70 L102 -5 L102 -5 L102 -5 Z" /><glyph glyph-name="" unicode="&#x7d2f;" d="M536 718 L864 718 L864 622 L536 622 L536 718 L536 718 L536 718 ZM488 622 L164 622 L164 718 L488 718 L488 622 L488 622 L488 622 ZM536 586 L864 586 L864 482 L536 482 L536 586 L536 586 L536 586 ZM164 586 L488 586 L488 482 L164 482 L164 586 L164 586 L164 586 ZM380 -7 L400 -43 L560 -43 L560 112 L926 112 L866 252 L820 252 L864 148 L268 148 L848 352 L848 392 L592 304 L240 304 L512 402 L512 444 L120 304 L120 268 L492 268 L120 136 L120 112 L512 112 L512 -7 L380 -7 L380 -7 L380 -7 ZM116 446 L912 446 L912 754 L116 754 L116 446 L116 446 L116 446 ZM316 32 L316 74 L112 -13 L112 -55 L316 32 L316 32 L316 32 ZM696 32 L900 -55 L900 -13 L696 74 L696 32 L696 32 L696 32 Z" /><glyph glyph-name="" unicode="&#x529b;" d="M438 790 L394 790 L372 656 L100 656 L100 620 L364 620 L116 -49 L162 -49 L408 620 L868 620 L848 -1 L588 -1 L608 -37 L896 -37 L916 656 L418 656 L438 790 L438 790 L438 790 Z" /><glyph glyph-name="" unicode="&#x8054;" d="M568 788 L520 788 L584 644 L632 644 L568 788 L568 788 L568 788 ZM924 -43 L976 -43 L788 248 L736 248 L924 -43 L924 -43 L924 -43 ZM150 552 L150 728 L362 728 L362 552 L150 552 L150 552 L150 552 ZM150 320 L150 516 L362 516 L362 320 L150 320 L150 320 L150 320 ZM362 284 L362 104 L150 64 L150 284 L362 284 L362 284 L362 284 ZM468 -43 L520 -43 L740 288 L984 288 L984 324 L744 324 L744 580 L960 580 L960 616 L852 616 L930 788 L880 788 L804 616 L476 616 L476 580 L696 580 L696 324 L448 324 L448 288 L684 288 L468 -43 L468 -43 L468 -43 ZM102 54 L46 42 L46 2 L362 64 L362 -53 L410 -53 L410 72 L486 86 L486 126 L410 112 L410 728 L470 728 L470 764 L50 764 L50 728 L102 728 L102 54 L102 54 L102 54 Z" /><glyph glyph-name="" unicode="&#x7edc;" d="M60 18 L60 -19 L364 48 L364 86 L60 18 L60 18 L60 18 ZM142 232 L358 574 L308 574 L246 474 L120 474 L254 770 L210 770 L56 442 L224 442 L68 196 L344 196 L344 232 L142 232 L142 232 L142 232 ZM476 -9 L476 266 L860 266 L860 -9 L476 -9 L476 -9 L476 -9 ZM428 -45 L908 -45 L908 302 L428 302 L428 -45 L428 -45 L428 -45 ZM456 630 L456 584 L620 494 L352 350 L352 302 L664 470 L964 306 L964 358 L706 496 L924 626 L924 746 L476 746 L490 790 L446 790 L370 594 L418 594 L462 710 L876 710 L876 646 L664 520 L456 630 L456 630 L456 630 Z" /><glyph glyph-name="" unicode="&#x6bcf;" d="M176 738 L188 790 L142 790 L78 566 L128 566 L166 702 L936 702 L936 738 L176 738 L176 738 L176 738 ZM500 500 L450 500 L544 294 L196 294 L220 526 L856 526 L852 294 L596 294 L500 500 L500 500 L500 500 ZM500 226 L448 226 L536 -9 L168 -9 L192 258 L852 258 L848 -9 L588 -9 L500 226 L500 226 L500 226 ZM116 -45 L894 -45 L898 258 L960 258 L960 294 L898 294 L902 566 L176 566 L148 294 L64 294 L64 258 L144 258 L116 -45 L116 -45 L116 -45 Z" /><glyph glyph-name="" unicode="&#x4eec;" d="M402 790 L348 790 L460 626 L514 626 L402 790 L402 790 L402 790 ZM270 790 L222 790 L60 394 L110 394 L270 790 L270 790 L270 790 ZM212 510 L164 510 L164 -53 L212 -53 L212 510 L212 510 L212 510 ZM380 606 L332 606 L332 -53 L380 -53 L380 606 L380 606 L380 606 ZM548 742 L548 706 L892 706 L892 -13 L652 -13 L672 -49 L940 -49 L940 742 L548 742 L548 742 L548 742 Z" /><glyph glyph-name="" unicode="&#x80fd;" d="M436 752 L388 752 L444 640 L138 640 L234 788 L182 788 L62 604 L512 604 L436 752 L436 752 L436 752 ZM142 344 L142 476 L434 476 L434 344 L142 344 L142 344 L142 344 ZM142 172 L142 308 L434 308 L434 172 L142 172 L142 172 L142 172 ZM638 600 L638 788 L590 788 L590 412 L946 412 L956 572 L916 604 L906 448 L638 448 L638 554 L920 724 L920 770 L638 600 L638 600 L638 600 ZM638 168 L638 366 L590 366 L590 -47 L946 -47 L956 112 L916 144 L906 -7 L638 -7 L638 124 L926 284 L926 328 L638 168 L638 168 L638 168 ZM434 136 L434 -11 L280 -11 L300 -47 L482 -47 L482 512 L94 512 L94 -51 L142 -51 L142 136 L434 136 L434 136 L434 136 Z" /><glyph glyph-name="" unicode="&#x4f60;" d="M458 428 L410 428 L292 42 L340 42 L458 428 L458 428 L458 428 ZM828 428 L780 428 L914 46 L962 46 L828 428 L828 428 L828 428 ZM228 790 L178 790 L34 382 L84 382 L228 790 L228 790 L228 790 ZM184 504 L136 504 L136 -53 L184 -53 L184 504 L184 504 L184 504 ZM472 -11 L492 -47 L656 -47 L656 644 L608 644 L608 -11 L472 -11 L472 -11 L472 -11 ZM960 738 L434 738 L452 790 L404 790 L278 476 L330 476 L424 702 L896 702 L832 492 L880 492 L960 738 L960 738 L960 738 Z" /><glyph glyph-name="" unicode="&#x5e74;" d="M536 96 L208 96 L208 406 L536 406 L536 96 L536 96 L536 96 ZM244 790 L194 790 L84 478 L136 478 L212 694 L536 694 L536 442 L160 442 L160 96 L76 96 L76 60 L536 60 L536 -55 L584 -55 L584 60 L956 60 L956 96 L584 96 L584 406 L918 406 L918 442 L584 442 L584 694 L936 694 L936 730 L224 730 L244 790 L244 790 L244 790 Z" /><glyph glyph-name="" unicode="&#x724c;" d="M488 546 L488 706 L660 706 L660 546 L488 546 L488 546 L488 546 ZM708 546 L708 706 L892 706 L892 546 L708 546 L708 546 L708 546 ZM660 510 L660 334 L488 334 L488 510 L660 510 L660 510 L660 510 ZM376 102 L376 66 L718 66 L718 -53 L766 -53 L766 66 L944 66 L944 102 L766 102 L766 254 L718 254 L718 102 L376 102 L376 102 L376 102 ZM892 510 L892 334 L708 334 L708 510 L892 510 L892 510 L892 510 ZM336 318 L132 318 L132 464 L404 464 L404 500 L304 500 L304 788 L256 788 L256 500 L132 500 L132 764 L84 764 L84 278 L64 -53 L108 -53 L132 282 L288 282 L288 -53 L336 -53 L336 318 L336 318 L336 318 ZM708 298 L940 298 L940 742 L676 742 L700 790 L648 790 L624 742 L440 742 L440 298 L636 298 L444 166 L444 116 L708 298 L708 298 L708 298 Z" /><glyph glyph-name="" unicode="&#x54c1;" d="M416 -3 L132 -3 L132 304 L416 304 L416 -3 L416 -3 L416 -3 ZM896 -3 L612 -3 L612 304 L896 304 L896 -3 L896 -3 L896 -3 ZM464 340 L84 340 L84 -39 L464 -39 L464 340 L464 340 L464 340 ZM944 -39 L944 340 L564 340 L564 -39 L944 -39 L944 -39 L944 -39 ZM188 484 L188 724 L836 724 L836 484 L188 484 L188 484 L188 484 ZM884 448 L884 760 L140 760 L140 448 L884 448 L884 448 L884 448 Z" /><glyph glyph-name="" unicode="&#x5e73;" d="M172 638 L120 638 L264 286 L316 286 L172 638 L172 638 L172 638 ZM888 638 L836 638 L704 282 L756 282 L888 638 L888 638 L888 638 ZM536 718 L912 718 L912 754 L96 754 L96 718 L488 718 L488 226 L68 226 L68 190 L488 190 L488 -61 L536 -61 L536 190 L948 190 L948 226 L536 226 L536 718 L536 718 L536 718 Z" /><glyph glyph-name="" unicode="&#x8d77;" d="M950 296 L910 326 L896 168 L602 168 L602 458 L926 458 L926 750 L538 750 L538 714 L878 714 L878 494 L554 494 L554 132 L936 132 L950 296 L950 296 L950 296 ZM112 334 L112 130 L64 -53 L108 -53 L152 102 L378 -45 L954 -45 L974 -9 L400 -9 L336 30 L336 234 L490 234 L490 270 L336 270 L336 450 L506 450 L506 486 L308 486 L308 682 L472 682 L472 718 L308 718 L308 798 L260 798 L260 718 L88 718 L88 682 L260 682 L260 486 L64 486 L64 450 L288 450 L288 58 L160 142 L160 334 L112 334 L112 334 L112 334 Z" /><glyph glyph-name="" unicode="&#x4f01;" d="M64 538 L512 742 L958 542 L958 588 L512 790 L64 588 L64 538 L64 538 L64 538 ZM190 432 L190 -7 L66 -7 L66 -43 L954 -43 L954 -7 L534 -7 L534 328 L888 328 L888 368 L534 368 L534 632 L486 632 L486 -7 L238 -7 L238 432 L190 432 L190 432 L190 432 Z" /><glyph glyph-name="" unicode="&#x5207;" d="M92 86 L92 44 L404 182 L404 224 L200 136 L200 510 L404 510 L404 546 L200 546 L200 770 L152 770 L152 546 L36 546 L36 510 L152 510 L152 112 L92 86 L92 86 L92 86 ZM952 754 L396 754 L396 718 L590 718 L378 -49 L426 -49 L638 718 L904 718 L892 -13 L616 -13 L636 -49 L940 -49 L952 754 L952 754 L952 754 Z" /><glyph glyph-name="" unicode="&#x8ba9;" d="M316 540 L316 604 L132 792 L132 732 L316 540 L316 540 L316 540 ZM60 474 L60 438 L180 438 L180 46 L116 -5 L116 -57 L380 154 L380 206 L228 86 L228 474 L60 474 L60 474 L60 474 ZM636 518 L636 790 L588 790 L588 -1 L296 -1 L296 -37 L970 -37 L970 -1 L636 -1 L636 482 L956 482 L956 518 L636 518 L636 518 L636 518 Z" /><glyph glyph-name="" unicode="&#x5546;" d="M296 674 L244 674 L316 554 L368 554 L296 674 L296 674 L296 674 ZM376 476 L324 476 L174 262 L226 262 L376 476 L376 476 L376 476 ZM850 262 L712 476 L660 476 L798 262 L850 262 L850 262 L850 262 ZM76 694 L952 694 L952 730 L544 730 L514 790 L462 790 L492 730 L76 730 L76 694 L76 694 L76 694 ZM656 62 L360 62 L360 280 L656 280 L656 62 L656 62 L656 62 ZM640 536 L96 536 L96 -53 L144 -53 L144 500 L880 500 L880 -5 L690 -5 L710 -41 L928 -41 L928 536 L690 536 L780 674 L730 674 L640 536 L640 536 L640 536 ZM704 26 L704 316 L312 316 L312 26 L704 26 L704 26 L704 26 Z" /><glyph glyph-name="" unicode="&#x8eab;" d="M218 582 L218 698 L798 698 L798 582 L218 582 L218 582 L218 582 ZM218 430 L218 546 L798 546 L798 430 L218 430 L218 430 L218 430 ZM218 270 L218 394 L798 394 L798 270 L794 270 L218 270 L218 270 L218 270 ZM488 790 L438 790 L402 730 L170 730 L170 270 L60 270 L60 234 L708 234 L78 -17 L78 -59 L798 228 L798 -17 L590 -17 L610 -53 L846 -53 L846 250 L942 290 L942 334 L846 292 L846 730 L452 730 L488 790 L488 790 L488 790 Z" /><glyph glyph-name="" unicode="&#x6df1;" d="M104 546 L52 546 L156 350 L208 350 L104 546 L104 546 L104 546 ZM134 774 L82 774 L194 578 L246 578 L134 774 L134 774 L134 774 ZM672 652 L672 604 L956 436 L956 486 L672 652 L672 652 L672 652 ZM540 604 L540 652 L268 482 L268 434 L540 604 L540 604 L540 604 ZM222 286 L174 286 L86 -53 L134 -53 L222 286 L222 286 L222 286 ZM282 760 L282 588 L330 588 L330 724 L910 724 L910 588 L958 588 L958 760 L282 760 L282 760 L282 760 ZM632 310 L724 310 L896 -45 L948 -45 L776 310 L960 310 L960 346 L632 346 L632 514 L584 514 L584 346 L264 346 L264 310 L436 310 L272 -45 L324 -45 L488 310 L584 310 L584 -53 L632 -53 L632 310 L632 310 L632 310 Z" /><glyph glyph-name="" unicode="&#x5347;" d="M744 762 L696 762 L696 394 L320 394 L320 702 L564 748 L564 788 L140 708 L140 668 L272 690 L272 394 L76 394 L76 358 L272 358 L272 228 L176 -53 L228 -53 L320 222 L320 358 L696 358 L696 -53 L744 -53 L744 358 L946 358 L946 394 L744 394 L744 762 L744 762 L744 762 Z" /><glyph glyph-name="" unicode="&#x5b9e;" d="M248 646 L248 594 L504 420 L504 476 L248 646 L248 646 L248 646 ZM168 506 L168 454 L428 282 L428 336 L168 506 L168 506 L168 506 ZM662 152 L662 98 L926 -53 L926 2 L662 152 L662 152 L662 152 ZM510 790 L458 790 L492 732 L92 732 L92 534 L140 534 L140 696 L884 696 L884 534 L932 534 L932 732 L544 732 L510 790 L510 790 L510 790 ZM612 202 L944 202 L944 238 L612 238 L612 634 L564 634 L564 238 L80 238 L80 202 L564 202 L564 154 L70 -17 L70 -61 L612 124 L612 202 L612 202 L612 202 Z" /><glyph glyph-name="" unicode="&#x5f0f;" d="M336 412 L566 412 L566 448 L82 448 L82 412 L288 412 L288 64 L54 28 L54 -11 L606 78 L606 116 L336 70 L336 412 L336 412 L336 412 ZM952 252 L908 282 L896 34 L746 154 L694 658 L858 658 L858 694 L690 694 L678 790 L630 790 L642 694 L74 694 L74 658 L646 658 L700 130 L940 -61 L952 252 L952 252 L952 252 ZM902 786 L852 786 L910 618 L962 618 L902 786 L902 786 L902 786 Z" /><glyph glyph-name="" unicode="&#x53d7;" d="M202 682 L154 682 L200 558 L248 558 L202 682 L202 682 L202 682 ZM506 692 L456 692 L510 558 L560 558 L506 692 L506 692 L506 692 ZM124 758 L124 722 L932 738 L932 774 L124 758 L124 758 L124 758 ZM932 530 L816 530 L880 698 L832 698 L766 530 L94 530 L94 342 L142 342 L142 494 L884 494 L884 342 L932 342 L932 530 L932 530 L932 530 ZM178 256 L178 216 L462 118 L112 -11 L112 -55 L516 94 L912 -41 L912 2 L568 118 L856 226 L856 358 L172 358 L172 322 L808 322 L808 252 L514 144 L178 256 L178 256 L178 256 Z" /><glyph glyph-name="" unicode="&#x53f0;" d="M814 748 L764 748 L864 572 L164 572 L292 788 L240 788 L84 536 L938 536 L814 748 L814 748 L814 748 ZM860 -7 L172 -7 L172 324 L860 324 L860 -7 L860 -7 L860 -7 ZM908 -43 L908 360 L124 360 L124 -43 L908 -43 L908 -43 L908 -43 Z" /><glyph glyph-name="" unicode="&#x63d0;" d="M418 620 L418 716 L866 716 L866 620 L418 620 L418 620 L418 620 ZM866 584 L866 476 L418 476 L418 584 L866 584 L866 584 L866 584 ZM50 308 L50 264 L166 316 L166 -11 L82 -11 L102 -47 L214 -47 L214 338 L338 396 L338 438 L214 382 L214 592 L340 592 L340 628 L214 628 L214 786 L166 786 L166 628 L50 628 L50 592 L166 592 L166 360 L50 308 L50 308 L50 308 ZM378 224 L378 128 L310 -47 L358 -47 L412 90 L614 -43 L958 -43 L978 -7 L674 -7 L674 144 L930 144 L930 180 L674 180 L674 288 L954 288 L954 324 L330 324 L330 288 L626 288 L626 0 L426 132 L426 224 L378 224 L378 224 L378 224 ZM914 440 L914 752 L370 752 L370 440 L914 440 L914 440 L914 440 Z" /><glyph glyph-name="" unicode="&#x4f53;" d="M224 786 L176 786 L40 402 L86 402 L224 786 L224 786 L224 786 ZM176 498 L128 498 L128 -53 L176 -53 L176 498 L176 498 L176 498 ZM364 122 L364 86 L584 86 L584 -53 L632 -53 L632 86 L848 86 L848 122 L632 122 L632 634 L756 634 L914 -21 L962 -21 L802 634 L954 634 L954 670 L632 670 L632 786 L584 786 L584 670 L246 670 L246 634 L404 634 L234 -21 L282 -21 L452 634 L584 634 L584 122 L364 122 L364 122 L364 122 Z" /><glyph glyph-name="" unicode="&#x5929;" d="M536 246 L536 362 L956 362 L956 398 L536 398 L536 706 L912 706 L912 742 L112 742 L112 706 L488 706 L488 398 L68 398 L68 362 L488 362 L488 268 L68 -7 L68 -57 L536 246 L536 246 L536 246 ZM548 204 L954 -57 L954 -7 L548 250 L548 204 L548 204 L548 204 Z" /><glyph glyph-name="" unicode="&#x63a8;" d="M674 774 L622 774 L684 668 L736 668 L674 774 L674 774 L674 774 ZM684 460 L456 460 L456 620 L684 620 L684 460 L684 460 L684 460 ZM684 252 L456 252 L456 424 L684 424 L684 252 L684 252 L684 252 ZM684 34 L456 34 L456 216 L684 216 L684 34 L684 34 L684 34 ZM74 308 L74 264 L162 296 L162 -15 L66 -15 L86 -51 L210 -51 L210 308 L316 344 L316 386 L210 350 L210 580 L326 580 L326 616 L210 616 L210 784 L162 784 L162 616 L54 616 L54 580 L162 580 L162 336 L74 308 L74 308 L74 308 ZM732 620 L964 620 L964 656 L460 656 L514 756 L464 756 L286 430 L336 430 L408 562 L408 -51 L456 -51 L456 -1 L964 -1 L964 34 L732 34 L732 216 L952 216 L952 252 L732 252 L732 424 L952 424 L952 460 L732 460 L732 620 L732 620 L732 620 Z" /><glyph glyph-name="" unicode="&#x7f51;" d="M338 418 L240 670 L192 670 L310 366 L184 50 L232 50 L338 314 L440 50 L492 50 L366 366 L484 670 L436 670 L338 418 L338 418 L338 418 ZM682 418 L578 670 L530 670 L654 366 L528 50 L580 50 L682 310 L788 50 L840 50 L710 366 L828 670 L780 670 L682 418 L682 418 L682 418 ZM148 730 L882 730 L882 -5 L738 -5 L758 -41 L930 -41 L930 766 L100 766 L100 -41 L148 -41 L148 730 L148 730 L148 730 Z" /><glyph glyph-name="" unicode="&#x671b;" d="M566 642 L566 734 L886 734 L886 642 L566 642 L566 642 L566 642 ZM566 510 L566 606 L886 606 L886 510 L566 510 L566 510 L566 510 ZM302 784 L254 784 L278 732 L84 732 L84 696 L148 696 L148 384 L108 370 L108 328 L468 442 L468 484 L196 398 L196 696 L484 696 L484 732 L326 732 L302 784 L302 784 L302 784 ZM536 238 L916 238 L916 274 L100 274 L100 238 L488 238 L488 150 L144 150 L144 114 L488 114 L488 4 L80 4 L80 -31 L944 -31 L944 4 L536 4 L536 114 L880 114 L880 150 L536 150 L536 238 L536 238 L536 238 ZM886 474 L886 378 L700 378 L720 342 L934 342 L934 770 L518 770 L518 462 L484 322 L534 322 L566 460 L566 474 L886 474 L886 474 L886 474 Z" /><glyph glyph-name="" unicode="&#x4e3a;" d="M500 790 L454 790 L402 582 L102 582 L102 546 L386 546 L106 -53 L154 -53 L438 546 L880 546 L868 -3 L564 -3 L584 -39 L912 -39 L926 582 L448 582 L500 790 L500 790 L500 790 ZM540 420 L490 420 L642 146 L694 146 L540 420 L540 420 L540 420 ZM232 766 L180 766 L280 618 L332 618 L232 766 L232 766 L232 766 Z" /><glyph glyph-name="" unicode="&#x6211;" d="M320 716 L496 734 L496 772 L92 732 L92 696 L272 712 L272 540 L76 540 L76 504 L272 504 L272 288 L70 238 L70 198 L272 248 L272 -7 L104 -7 L124 -43 L320 -43 L320 258 L512 308 L512 344 L320 298 L320 504 L664 504 L688 200 L468 8 L468 -45 L708 160 L942 -57 L952 152 L906 186 L896 44 L742 190 L944 372 L944 428 L732 240 L712 504 L948 504 L948 540 L708 540 L694 790 L648 790 L660 540 L320 540 L320 716 L320 716 L320 716 ZM904 660 L956 660 L848 788 L796 788 L904 660 L904 660 L904 660 Z" /><glyph glyph-name="" unicode="&#x52a1;" d="M418 370 L372 370 L340 262 L132 262 L132 226 L316 226 L124 -53 L172 -53 L372 226 L840 226 L832 -9 L516 -9 L536 -45 L880 -45 L890 262 L390 262 L418 370 L418 370 L418 370 ZM216 618 L216 576 L464 490 L68 358 L68 318 L516 464 L960 314 L960 358 L564 490 L908 608 L908 742 L212 742 L226 790 L180 790 L88 512 L134 512 L204 706 L860 706 L860 634 L518 514 L216 618 L216 618 L216 618 Z" /><glyph glyph-name="" unicode="&#x5e0c;" d="M538 262 L538 390 L490 390 L490 262 L130 262 L130 -35 L178 -35 L178 226 L490 226 L490 -53 L538 -53 L538 226 L866 226 L866 0 L762 0 L784 -35 L914 -35 L914 262 L538 262 L538 262 L538 262 ZM926 530 L926 576 L580 664 L902 752 L902 794 L514 690 L126 792 L126 750 L446 666 L106 570 L106 524 L514 640 L926 530 L926 530 L926 530 ZM70 248 L478 430 L946 430 L946 466 L490 466 L528 542 L470 542 L430 466 L82 466 L82 430 L368 430 L70 296 L70 248 L70 248 L70 248 Z" /><glyph glyph-name="" unicode="&#x4e0b;" d="M596 502 L596 446 L912 218 L912 274 L596 502 L596 502 L596 502 ZM536 710 L960 710 L960 746 L68 746 L68 710 L488 710 L488 -53 L536 -53 L536 710 L536 710 L536 710 Z" /><glyph glyph-name="" unicode="&#x73b0;" d="M986 128 L944 158 L936 -3 L750 -3 L750 206 L702 206 L702 -39 L978 -39 L986 128 L986 128 L986 128 ZM352 -53 L412 -53 L702 262 L702 618 L654 618 L654 278 L352 -53 L352 -53 L352 -53 ZM50 14 L50 -25 L354 70 L354 110 L218 66 L218 394 L354 394 L354 430 L218 430 L218 710 L362 710 L362 746 L50 746 L50 710 L170 710 L170 430 L50 430 L50 394 L170 394 L170 54 L50 14 L50 14 L50 14 ZM406 746 L406 222 L454 222 L454 714 L898 714 L898 222 L946 222 L946 746 L406 746 L406 746 L406 746 Z" /><glyph glyph-name="" unicode="&#x9500;" d="M208 786 L162 786 L34 454 L78 454 L154 638 L358 638 L358 674 L166 674 L208 786 L208 786 L208 786 ZM150 -19 L150 -69 L374 112 L374 162 L222 42 L222 294 L348 294 L348 330 L222 330 L222 470 L332 470 L332 506 L108 506 L108 470 L174 470 L174 330 L50 330 L50 294 L174 294 L174 4 L150 -19 L150 -19 L150 -19 ZM454 382 L454 534 L886 534 L886 382 L454 382 L454 382 L454 382 ZM454 186 L454 346 L886 346 L886 186 L454 186 L454 186 L454 186 ZM910 768 L858 768 L746 586 L800 586 L910 768 L910 768 L910 768 ZM734 570 L694 570 L694 790 L646 790 L646 570 L606 570 L580 570 L554 570 L406 570 L406 -53 L454 -53 L454 150 L886 150 L886 -17 L722 -17 L742 -53 L934 -53 L934 570 L790 570 L762 570 L734 570 L734 570 L734 570 ZM596 586 L490 760 L438 760 L542 586 L596 586 L596 586 L596 586 Z" /><glyph glyph-name="" unicode="&#x578b;" d="M730 746 L682 746 L682 410 L730 410 L730 746 L730 746 L730 746 ZM708 318 L728 282 L916 282 L916 770 L868 770 L868 318 L708 318 L708 318 L708 318 ZM220 714 L430 714 L430 510 L220 510 L220 714 L220 714 L220 714 ZM536 254 L488 254 L488 178 L144 178 L144 142 L488 142 L488 -13 L66 -13 L66 -45 L958 -45 L958 -13 L536 -13 L536 142 L880 142 L880 178 L536 178 L536 254 L536 254 L536 254 ZM220 474 L430 474 L430 266 L478 266 L478 474 L594 474 L594 510 L478 510 L478 714 L576 714 L576 750 L84 750 L84 714 L172 714 L172 510 L64 510 L64 474 L172 474 L108 262 L156 262 L220 474 L220 474 L220 474 Z" /><glyph glyph-name="" unicode="&#x884c;" d="M296 790 L240 790 L44 514 L100 514 L296 790 L296 790 L296 790 ZM292 538 L236 538 L44 262 L96 262 L292 538 L292 538 L292 538 ZM224 360 L176 360 L176 -45 L224 -45 L224 360 L224 360 L224 360 ZM380 718 L928 718 L928 754 L380 754 L380 718 L380 718 L380 718 ZM812 438 L812 -9 L528 -9 L548 -45 L860 -45 L860 438 L964 438 L964 474 L344 474 L344 438 L812 438 L812 438 L812 438 Z" /><glyph glyph-name="" unicode="&#x9a8c;" d="M46 194 L46 158 L294 206 L294 242 L46 194 L46 194 L46 194 ZM688 398 L640 398 L674 42 L722 42 L688 398 L688 398 L688 398 ZM504 398 L456 398 L494 42 L542 42 L504 398 L504 398 L504 398 ZM430 518 L430 482 L934 482 L934 518 L430 518 L430 518 L430 518 ZM402 570 L682 736 L970 558 L970 606 L682 790 L402 618 L402 570 L402 570 L402 570 ZM406 -5 L406 -41 L974 -41 L974 -5 L866 -5 L938 398 L890 398 L818 -5 L406 -5 L406 -5 L406 -5 ZM98 -5 L118 -41 L354 -41 L378 378 L306 378 L354 758 L58 758 L58 722 L302 722 L258 378 L114 378 L144 666 L96 666 L62 342 L330 342 L310 -5 L98 -5 L98 -5 L98 -5 Z" /><glyph glyph-name="" unicode="&#x4e5f;" d="M60 580 L60 540 L132 554 L132 -37 L936 -37 L948 154 L904 184 L892 2 L180 2 L180 564 L488 618 L488 118 L536 118 L536 626 L848 676 L824 266 L624 266 L644 230 L872 230 L900 726 L536 664 L536 794 L488 794 L488 656 L180 602 L180 746 L132 746 L132 594 L60 580 L60 580 L60 580 Z" /><glyph glyph-name="" unicode="&#x4e1a;" d="M126 650 L76 650 L204 184 L254 184 L126 650 L126 650 L126 650 ZM950 650 L900 650 L768 184 L818 184 L950 650 L950 650 L950 650 ZM60 -5 L60 -41 L964 -41 L964 -5 L708 -5 L708 790 L660 790 L660 -5 L360 -5 L360 790 L312 790 L312 -5 L60 -5 L60 -5 L60 -5 Z" /><glyph glyph-name="" unicode="&#x4e00;" d="M82 440 L82 404 L938 404 L938 440 L82 440 L82 440 L82 440 Z" /><glyph glyph-name="" unicode="&#x79fb;" d="M612 594 L548 594 L664 498 L456 346 L526 346 L938 642 L938 746 L660 746 L700 790 L636 790 L420 554 L478 554 L632 710 L890 710 L890 662 L700 522 L612 594 L612 594 L612 594 ZM268 -53 L268 510 L412 510 L412 546 L268 546 L268 732 L404 748 L404 788 L68 750 L68 710 L220 726 L220 546 L64 546 L64 510 L178 510 L42 82 L88 82 L220 506 L220 -53 L268 -53 L268 -53 L268 -53 ZM630 194 L566 194 L682 98 L474 -53 L544 -53 L956 242 L956 346 L680 346 L754 426 L694 426 L446 170 L502 170 L650 310 L908 310 L908 262 L718 122 L630 194 L630 194 L630 194 ZM284 454 L368 198 L420 198 L334 454 L284 454 L284 454 L284 454 Z" /><glyph glyph-name="" unicode="&#x4ee5;" d="M472 782 L422 782 L552 518 L604 518 L472 782 L472 782 L472 782 ZM832 278 L784 278 L912 -45 L960 -45 L832 278 L832 278 L832 278 ZM420 -53 L476 -53 L858 374 L878 790 L832 790 L812 390 L420 -53 L420 -53 L420 -53 ZM84 8 L84 -41 L480 222 L480 270 L188 78 L188 770 L140 770 L140 46 L84 8 L84 8 L84 8 Z" /><glyph glyph-name="" unicode="&#x76ca;" d="M908 748 L908 796 L640 652 L640 604 L908 748 L908 748 L908 748 ZM416 -7 L416 264 L612 264 L612 -7 L416 -7 L416 -7 L416 -7 ZM660 -7 L660 264 L864 264 L864 -7 L660 -7 L660 -7 L660 -7 ZM164 -7 L164 264 L368 264 L368 -7 L164 -7 L164 -7 L164 -7 ZM72 600 L72 564 L372 564 L76 360 L76 310 L372 512 L372 564 L640 564 L640 512 L948 304 L948 356 L640 564 L956 564 L956 600 L72 600 L72 600 L72 600 ZM64 -7 L64 -43 L968 -43 L968 -7 L912 -7 L912 300 L116 300 L116 -7 L64 -7 L64 -7 L64 -7 ZM372 652 L116 796 L116 748 L372 604 L372 652 L372 652 L372 652 Z" /><glyph glyph-name="" unicode="&#x56e0;" d="M920 758 L100 758 L100 -43 L920 -43 L920 758 L920 758 L920 758 ZM148 -7 L148 722 L872 722 L872 -7 L148 -7 L148 -7 L148 -7 ZM540 464 L828 464 L828 500 L540 500 L540 684 L492 684 L492 500 L192 500 L192 464 L492 464 L492 396 L212 44 L268 44 L540 380 L540 464 L540 464 L540 464 ZM522 340 L746 44 L804 44 L576 340 L522 340 L522 340 L522 340 Z" /><glyph glyph-name="" unicode="&#x5e94;" d="M320 546 L272 546 L360 50 L408 50 L320 546 L320 546 L320 546 ZM576 570 L528 570 L600 74 L648 74 L576 570 L576 570 L576 570 ZM206 -5 L206 -41 L938 -41 L938 -5 L802 -5 L910 574 L862 574 L754 -5 L206 -5 L206 -5 L206 -5 ZM562 786 L514 786 L534 714 L122 714 L122 202 L94 -53 L142 -53 L170 190 L170 678 L942 678 L942 714 L582 714 L562 786 L562 786 L562 786 Z" /><glyph glyph-name="" unicode="&#x8425;" d="M936 600 L84 600 L84 446 L132 446 L132 566 L888 566 L888 446 L936 446 L936 600 L936 600 L936 600 ZM696 790 L648 790 L648 738 L376 738 L376 790 L328 790 L328 738 L72 738 L72 702 L328 702 L328 626 L376 626 L376 702 L648 702 L648 626 L696 626 L696 702 L952 702 L952 738 L696 738 L696 790 L696 790 L696 790 ZM232 306 L232 438 L792 438 L792 306 L232 306 L232 306 L232 306 ZM196 -11 L196 148 L832 148 L832 -11 L196 -11 L196 -11 L196 -11 ZM840 270 L840 474 L184 474 L184 270 L840 270 L840 270 L840 270 ZM148 -47 L880 -47 L880 182 L148 182 L148 -47 L148 -47 L148 -47 Z" /><glyph glyph-name="" unicode="&#x4e8e;" d="M264 -13 L280 -49 L600 -49 L600 338 L960 338 L960 374 L600 374 L600 718 L912 718 L912 754 L120 754 L120 718 L552 718 L552 374 L60 374 L60 338 L552 338 L552 -13 L264 -13 L264 -13 L264 -13 Z" /><glyph glyph-name="" unicode="&#x5728;" d="M646 624 L598 624 L598 364 L330 364 L330 328 L598 328 L598 -7 L290 -7 L290 -43 L942 -43 L942 -7 L646 -7 L646 328 L902 328 L902 364 L646 364 L646 624 L646 624 L646 624 ZM204 442 L396 678 L952 678 L952 714 L412 714 L444 790 L390 790 L360 714 L84 714 L84 678 L338 678 L40 310 L92 310 L156 386 L156 -53 L204 -53 L204 442 L204 442 L204 442 Z" /><glyph glyph-name="" unicode="&#x7ad9;" d="M52 672 L52 636 L444 636 L444 672 L268 672 L248 792 L200 792 L220 672 L52 672 L52 672 L52 672 ZM132 584 L86 584 L150 80 L198 80 L132 584 L132 584 L132 584 ZM52 6 L52 -35 L440 60 L440 102 L332 74 L400 588 L352 588 L284 62 L52 6 L52 6 L52 6 ZM894 -7 L524 -7 L524 360 L894 360 L894 -7 L894 -7 L894 -7 ZM708 644 L708 796 L660 796 L660 396 L476 396 L476 -43 L942 -43 L942 396 L708 396 L708 608 L972 608 L972 644 L708 644 L708 644 L708 644 Z" /><glyph glyph-name="" unicode="&#x62db;" d="M636 702 L888 702 L878 426 L662 426 L682 390 L926 390 L936 738 L396 738 L396 702 L584 702 L396 370 L448 370 L636 702 L636 702 L636 702 ZM224 790 L176 790 L176 634 L44 634 L44 598 L176 598 L176 360 L44 314 L44 270 L176 316 L176 -5 L80 -5 L100 -41 L224 -41 L224 334 L372 386 L372 430 L224 376 L224 598 L372 598 L372 634 L224 634 L224 790 L224 790 L224 790 ZM440 288 L888 288 L888 -5 L440 -5 L440 288 L440 288 L440 288 ZM936 -41 L936 324 L392 324 L392 -41 L936 -41 L936 -41 L936 -41 Z" /><glyph glyph-name="" unicode="&#x8fd9;" d="M144 784 L88 784 L232 584 L288 584 L144 784 L144 784 L144 784 ZM292 -43 L960 -43 L980 -7 L320 -7 L212 128 L212 508 L56 508 L56 472 L164 472 L164 128 L56 -43 L108 -43 L190 82 L292 -43 L292 -43 L292 -43 ZM884 684 L948 684 L948 720 L658 720 L626 796 L574 796 L606 720 L304 720 L304 684 L836 684 L836 584 L630 356 L360 610 L360 554 L600 324 L350 74 L350 20 L632 292 L926 32 L926 90 L662 324 L884 566 L884 684 L884 684 L884 684 Z" /><glyph glyph-name="" unicode="&#x771f;" d="M76 66 L956 66 L956 98 L876 98 L876 626 L528 626 L528 708 L948 708 L948 740 L528 740 L528 800 L480 800 L480 740 L88 740 L88 708 L480 708 L480 626 L156 626 L156 98 L76 98 L76 66 L76 66 L76 66 ZM204 230 L204 330 L828 330 L828 230 L204 230 L204 230 L204 230 ZM828 198 L828 98 L204 98 L204 198 L828 198 L828 198 L828 198 ZM204 494 L204 594 L828 594 L828 494 L204 494 L204 494 L204 494 ZM204 362 L204 462 L828 462 L828 362 L204 362 L204 362 L204 362 ZM610 12 L932 -65 L932 -21 L610 52 L610 12 L610 12 L610 12 ZM92 -17 L92 -61 L408 12 L408 52 L92 -17 L92 -17 L92 -17 Z" /><glyph glyph-name="" unicode="&#x6b63;" d="M170 526 L170 -9 L60 -9 L60 -45 L956 -45 L956 -9 L536 -9 L536 360 L896 360 L896 396 L536 396 L536 690 L946 690 L946 726 L80 726 L80 690 L488 690 L488 -9 L218 -9 L218 526 L170 526 L170 526 L170 526 Z" /><glyph glyph-name="" unicode="&#x503c;" d="M230 790 L182 790 L48 386 L96 386 L230 790 L230 790 L230 790 ZM186 482 L138 482 L138 -53 L186 -53 L186 482 L186 482 L186 482 ZM370 470 L370 582 L878 582 L878 470 L370 470 L370 470 L370 470 ZM370 310 L370 434 L878 434 L878 310 L370 310 L370 310 L370 310 ZM878 118 L878 -5 L370 -5 L370 118 L878 118 L878 118 L878 118 ZM370 154 L370 274 L878 274 L878 154 L370 154 L370 154 L370 154 ZM642 790 L594 790 L594 746 L286 746 L286 710 L594 710 L594 618 L322 618 L322 -5 L254 -5 L254 -41 L978 -41 L978 -5 L926 -5 L926 618 L642 618 L642 710 L950 710 L950 746 L642 746 L642 790 L642 790 L642 790 Z" /><glyph glyph-name="" unicode="&#x81f4;" d="M668 476 L618 476 L726 254 L556 -51 L608 -51 L754 210 L896 -49 L948 -49 L784 256 L928 520 L928 672 L964 672 L964 708 L648 708 L660 780 L614 780 L534 372 L576 372 L640 672 L880 672 L880 530 L756 302 L668 476 L668 476 L668 476 ZM408 624 L364 624 L436 444 L132 444 L254 700 L522 700 L522 736 L52 736 L52 700 L208 700 L68 408 L496 408 L408 624 L408 624 L408 624 ZM256 392 L256 268 L68 268 L68 232 L256 232 L256 36 L52 4 L52 -35 L512 40 L512 78 L304 42 L304 232 L496 232 L496 268 L304 268 L304 392 L256 392 L256 392 L256 392 Z" /><glyph glyph-name="" unicode="&#x5236;" d="M760 726 L712 726 L712 118 L760 118 L760 726 L760 726 L760 726 ZM692 -13 L712 -53 L928 -53 L928 782 L880 782 L880 -13 L692 -13 L692 -13 L692 -13 ZM426 -17 L446 -53 L596 -53 L596 322 L368 322 L368 474 L622 474 L622 510 L368 510 L368 678 L596 678 L596 714 L368 714 L368 778 L320 778 L320 714 L156 714 L166 758 L118 758 L62 546 L108 546 L146 678 L320 678 L320 510 L68 510 L68 474 L320 474 L320 322 L96 322 L96 -53 L144 -53 L144 286 L320 286 L320 -53 L368 -53 L368 286 L548 286 L548 -17 L426 -17 L426 -17 L426 -17 Z" /><glyph glyph-name="" unicode="&#x667a;" d="M352 500 L352 452 L536 348 L536 398 L352 500 L352 500 L352 500 ZM344 520 L540 520 L540 556 L344 556 L344 716 L524 716 L524 752 L176 752 L188 790 L140 790 L72 592 L120 592 L164 716 L296 716 L296 556 L84 556 L84 520 L296 520 L296 506 L84 344 L84 296 L344 488 L344 520 L344 520 L344 520 ZM888 448 L620 448 L620 720 L888 720 L888 448 L888 448 L888 448 ZM836 -3 L200 -3 L200 130 L836 130 L836 -3 L836 -3 L836 -3 ZM200 292 L836 292 L836 166 L200 166 L200 292 L200 292 L200 292 ZM572 412 L936 412 L936 756 L572 756 L572 412 L572 412 L572 412 ZM884 328 L152 328 L152 -39 L884 -39 L884 328 L884 328 L884 328 Z" /><glyph glyph-name="" unicode="&#x4e2d;" d="M534 628 L890 628 L890 140 L534 140 L534 628 L534 628 L534 628 ZM486 140 L138 140 L138 628 L486 628 L486 140 L486 140 L486 140 ZM534 790 L486 790 L486 664 L90 664 L90 104 L486 104 L486 -53 L534 -53 L534 104 L938 104 L938 664 L534 664 L534 790 L534 790 L534 790 Z" /><glyph glyph-name="" unicode="&#x79cd;" d="M334 438 L288 438 L352 218 L402 218 L334 438 L334 438 L334 438 ZM674 158 L504 158 L504 630 L674 630 L674 158 L674 158 L674 158 ZM224 476 L224 -49 L272 -49 L272 482 L428 482 L428 518 L272 518 L272 694 L402 710 L402 746 L76 710 L76 674 L224 690 L224 518 L64 518 L64 482 L182 482 L62 94 L108 94 L224 476 L224 476 L224 476 ZM722 630 L896 630 L896 158 L722 158 L722 630 L722 630 L722 630 ZM722 786 L674 786 L674 666 L456 666 L456 122 L674 122 L674 -53 L722 -53 L722 122 L944 122 L944 666 L722 666 L722 786 L722 786 L722 786 Z" /><glyph glyph-name="" unicode="&#x52a9;" d="M160 522 L160 694 L420 694 L420 522 L160 522 L160 522 L160 522 ZM160 306 L160 486 L420 486 L420 306 L160 306 L160 306 L160 306 ZM420 270 L420 82 L160 30 L160 270 L420 270 L420 270 L420 270 ZM728 786 L682 786 L664 614 L496 614 L496 578 L658 578 L524 -49 L572 -49 L708 578 L904 578 L880 -1 L684 -1 L704 -37 L928 -37 L952 614 L712 614 L728 786 L728 786 L728 786 ZM66 12 L66 -27 L528 66 L528 106 L468 92 L468 730 L112 730 L112 22 L66 12 L66 12 L66 12 Z" /><glyph glyph-name="" unicode="&#x4e13;" d="M192 68 L192 28 L780 -49 L780 -11 L620 10 L884 242 L884 270 L228 270 L296 434 L936 434 L936 470 L308 470 L388 674 L916 674 L916 710 L400 710 L428 786 L380 786 L352 710 L128 710 L128 674 L340 674 L260 470 L88 470 L88 434 L244 434 L164 234 L812 234 L564 18 L192 68 L192 68 L192 68 Z" /><glyph glyph-name="" unicode="&#x8f6c;" d="M44 150 L44 114 L240 140 L240 -53 L288 -53 L288 146 L432 166 L432 202 L288 182 L288 342 L408 342 L408 378 L288 378 L288 546 L240 546 L240 378 L124 378 L202 634 L408 634 L408 670 L212 670 L248 786 L200 786 L164 670 L68 670 L68 634 L154 634 L64 342 L240 342 L240 176 L44 150 L44 150 L44 150 ZM484 68 L484 26 L892 -49 L892 -9 L760 14 L948 310 L560 310 L606 454 L972 454 L972 490 L618 490 L676 674 L948 674 L948 710 L688 710 L712 786 L664 786 L640 710 L452 710 L452 674 L628 674 L570 490 L428 490 L428 454 L558 454 L500 274 L876 274 L716 22 L484 68 L484 68 L484 68 Z" /><glyph glyph-name="" unicode="&#x6700;" d="M436 276 L160 276 L160 364 L436 364 L436 276 L436 276 L436 276 ZM160 240 L436 240 L436 156 L160 156 L160 240 L160 240 L160 240 ZM160 604 L864 604 L864 516 L160 516 L160 604 L160 604 L160 604 ZM864 640 L160 640 L160 724 L864 724 L864 640 L864 640 L864 640 ZM576 220 L576 172 L700 94 L548 -3 L548 -51 L738 70 L944 -59 L944 -7 L776 96 L932 200 L932 288 L576 288 L576 252 L884 252 L884 220 L738 120 L576 220 L576 220 L576 220 ZM64 -47 L436 16 L436 -53 L484 -53 L484 20 L540 32 L540 72 L484 60 L484 364 L960 364 L960 400 L68 400 L68 364 L112 364 L112 0 L64 -7 L64 -47 L64 -47 L64 -47 ZM160 8 L160 120 L436 120 L436 56 L160 8 L160 8 L160 8 ZM912 760 L112 760 L112 480 L912 480 L912 760 L912 760 L912 760 Z" /><glyph glyph-name="" unicode="&#x505a;" d="M204 786 L156 786 L42 418 L88 418 L204 786 L204 786 L204 786 ZM164 502 L116 502 L116 -53 L164 -53 L164 502 L164 502 L164 502 ZM312 6 L312 338 L536 338 L536 6 L312 6 L312 6 L312 6 ZM692 446 L644 446 L764 218 L624 -53 L672 -53 L792 170 L916 -53 L964 -53 L820 222 L948 478 L948 686 L988 686 L988 722 L720 722 L732 786 L684 786 L620 482 L668 482 L712 686 L900 686 L900 482 L792 266 L692 446 L692 446 L692 446 ZM264 374 L264 -29 L584 -29 L584 374 L444 374 L444 626 L620 626 L620 662 L444 662 L444 786 L396 786 L396 662 L212 662 L212 626 L396 626 L396 374 L264 374 L264 374 L264 374 Z" /><glyph glyph-name="" unicode="&#x4f5c;" d="M292 786 L240 786 L56 398 L104 398 L160 518 L160 -53 L208 -53 L208 518 L160 518 L292 786 L292 786 L292 786 ZM640 164 L640 400 L972 400 L972 436 L640 436 L640 662 L988 662 L988 698 L472 698 L508 786 L460 786 L284 390 L332 390 L456 662 L592 662 L592 -53 L640 -53 L640 128 L972 128 L972 164 L640 164 L640 164 L640 164 Z" /></font>
</defs>
</svg>
