<?xml version="1.0" standalone="no"?><!DOCTYPE svg PUBLIC "-//W3C//DTD SVG 1.1//EN" "http://www.w3.org/Graphics/SVG/1.1/DTD/svg11.dtd" ><svg xmlns="http://www.w3.org/2000/svg"><metadata></metadata><defs><font id="BigYoungBoldGB2.0" horiz-adv-x="1024"><font-face font-family="BigYoungBoldGB2.0" font-weight="400" font-stretch="normal" units-per-em="1024" panose-1="2 1 6 4 0 0 0 0 0 0" ascent="880" descent="-204" x-height="0" bbox="28 -57 1010 790" underline-thickness="20" underline-position="-128" unicode-range="U+4e0b-98ce" /><missing-glyph horiz-adv-x="0"  /><glyph glyph-name="" unicode="&#x6848;" d="M216 562 L80 562 L80 478 L168 478 L116 374 L312 342 L84 304 L84 224 L512 298 L936 228 L936 308 L712 342 L884 366 L884 478 L944 478 L944 562 L324 562 L348 614 L240 614 L216 562 L216 562 L216 562 ZM564 786 L456 786 L464 746 L80 746 L80 612 L176 612 L176 666 L848 666 L848 612 L944 612 L944 746 L572 746 L564 786 L564 786 L564 786 ZM784 430 L512 382 L260 426 L284 478 L784 478 L784 430 L784 430 L784 430 ZM808 -45 L928 -45 L820 70 L700 70 L808 -45 L808 -45 L808 -45 ZM200 70 L96 -45 L212 -45 L316 70 L200 70 L200 70 L200 70 ZM944 100 L944 180 L560 180 L560 250 L460 250 L460 180 L80 180 L80 100 L460 100 L460 -45 L560 -45 L560 100 L944 100 L944 100 L944 100 Z" /><glyph glyph-name="" unicode="&#x767e;" d="M208 306 L208 470 L816 470 L816 306 L208 306 L208 306 L208 306 ZM816 218 L816 42 L208 42 L208 218 L816 218 L816 218 L816 218 ZM916 554 L510 554 L550 678 L944 678 L944 766 L76 766 L76 678 L442 678 L402 554 L108 554 L108 -45 L916 -45 L916 554 L916 554 L916 554 Z" /><glyph glyph-name="" unicode="&#x62a5;" d="M480 326 L832 326 L832 296 L734 190 L676 258 L562 258 L668 130 L500 -45 L620 -45 L728 66 L822 -45 L940 -45 L796 126 L936 270 L936 414 L480 414 L480 678 L838 678 L832 594 L600 594 L644 506 L924 506 L940 766 L380 766 L380 -45 L480 -45 L480 326 L480 326 L480 326 ZM68 42 L104 -45 L256 -45 L256 266 L338 296 L338 396 L256 366 L256 558 L328 558 L328 646 L256 646 L256 776 L156 776 L156 646 L72 646 L72 558 L156 558 L156 334 L72 302 L72 202 L156 234 L156 42 L68 42 L68 42 L68 42 Z" /><glyph glyph-name="" unicode="&#x88ab;" d="M264 370 L216 406 L316 588 L316 654 L68 654 L68 566 L196 566 L40 278 L112 278 L112 -45 L212 -45 L212 296 L376 170 L376 282 L332 314 L400 502 L312 502 L264 370 L264 370 L264 370 ZM236 782 L132 782 L192 694 L300 694 L236 782 L236 782 L236 782 ZM544 130 L544 382 L836 382 L836 328 L738 216 L684 282 L570 282 L678 148 L508 -45 L624 -45 L736 76 L836 -45 L956 -45 L798 144 L936 294 L936 474 L758 474 L758 646 L844 646 L836 546 L932 546 L944 734 L758 734 L758 782 L658 782 L658 734 L444 734 L444 146 L340 -45 L446 -45 L544 130 L544 130 L544 130 ZM544 474 L544 646 L658 646 L658 474 L544 474 L544 474 L544 474 Z" /><glyph glyph-name="" unicode="&#x4e0d;" d="M452 -45 L552 -45 L552 604 L624 674 L928 674 L928 762 L88 762 L88 674 L488 674 L84 252 L84 134 L452 502 L452 -45 L452 -45 L452 -45 ZM928 144 L928 264 L612 526 L612 414 L928 144 L928 144 L928 144 Z" /><glyph glyph-name="" unicode="&#x573a;" d="M144 98 L56 74 L56 -25 L346 54 L346 150 L240 122 L240 466 L336 466 L336 554 L240 554 L240 790 L144 790 L144 554 L52 554 L52 466 L144 466 L144 98 L144 98 L144 98 ZM396 430 L520 430 L396 316 L396 196 L636 430 L740 430 L396 70 L396 -53 L840 396 L824 42 L650 42 L702 -45 L924 -45 L944 518 L596 518 L928 718 L928 782 L408 782 L408 694 L720 694 L396 494 L396 430 L396 430 L396 430 Z" /><glyph glyph-name="" unicode="&#x8fbe;" d="M640 394 L842 154 L964 154 L692 482 L692 566 L944 566 L944 654 L692 654 L692 782 L592 782 L592 654 L350 654 L350 566 L592 566 L592 486 L324 154 L444 154 L640 394 L640 394 L640 394 ZM288 -45 L930 -45 L966 42 L328 42 L212 146 L212 514 L58 514 L58 426 L112 426 L112 124 L58 72 L58 -51 L172 56 L288 -45 L288 -45 L288 -45 ZM96 668 L268 554 L268 660 L96 774 L96 668 L96 668 L96 668 Z" /><glyph glyph-name="" unicode="&#x4ee3;" d="M936 568 L648 526 L610 782 L508 782 L544 508 L328 476 L328 380 L564 416 L766 -45 L868 -45 L956 166 L876 244 L816 88 L668 438 L936 476 L936 568 L936 568 L936 568 ZM822 774 L710 774 L778 622 L892 622 L822 774 L822 774 L822 774 ZM288 782 L188 782 L52 414 L112 414 L112 -45 L212 -45 L212 454 L168 454 L288 782 L288 782 L288 782 Z" /><glyph glyph-name="" unicode="&#x5b9a;" d="M554 786 L448 786 L464 728 L90 728 L90 560 L190 560 L190 644 L834 644 L834 560 L934 560 L934 728 L570 728 L554 786 L554 786 L554 786 ZM152 314 L152 162 L62 -45 L162 -45 L222 72 L334 -45 L914 -45 L956 42 L562 42 L562 202 L898 202 L898 286 L562 286 L562 416 L934 416 L934 500 L90 500 L90 416 L462 416 L462 42 L374 42 L252 174 L252 314 L152 314 L152 314 L152 314 Z" /><glyph glyph-name="" unicode="&#x52a8;" d="M516 -45 L612 -45 L720 552 L726 626 L844 626 L832 42 L710 42 L762 -45 L932 -45 L944 714 L730 714 L734 786 L636 786 L632 714 L524 714 L524 626 L628 626 L622 554 L516 -45 L516 -45 L516 -45 ZM476 482 L68 482 L68 394 L148 394 L68 -25 L488 -25 L440 266 L344 266 L376 62 L184 62 L248 394 L476 394 L476 482 L476 482 L476 482 ZM88 750 L88 662 L460 662 L460 750 L88 750 L88 750 L88 750 Z" /><glyph glyph-name="" unicode="&#x961f;" d="M188 -45 L188 680 L320 680 L232 432 L310 432 L310 116 L228 116 L264 32 L406 32 L406 454 L340 454 L446 768 L92 768 L92 -45 L188 -45 L188 -45 L188 -45 ZM412 -45 L520 -45 L680 274 L848 -45 L960 -45 L736 382 L736 784 L632 784 L632 398 L412 -45 L412 -45 L412 -45 Z" /><glyph glyph-name="" unicode="&#x98ce;" d="M204 190 L204 674 L810 674 L810 -45 L934 -45 L964 42 L906 42 L906 762 L104 762 L104 202 L60 -45 L160 -45 L204 190 L204 190 L204 190 ZM562 304 L768 626 L652 626 L498 390 L348 626 L228 626 L434 304 L202 -27 L314 -27 L498 218 L658 -27 L778 -27 L562 304 L562 304 L562 304 Z" /><glyph glyph-name="" unicode="&#x670d;" d="M404 -45 L404 766 L100 766 L100 150 L64 -45 L164 -45 L200 146 L200 202 L304 202 L304 42 L232 42 L258 -45 L404 -45 L404 -45 L404 -45 ZM304 290 L200 290 L200 446 L304 446 L304 290 L304 290 L304 290 ZM304 534 L200 534 L200 678 L304 678 L304 534 L304 534 L304 534 ZM584 350 L832 350 L780 236 L760 270 L654 270 L720 154 L600 -45 L708 -45 L776 66 L840 -45 L948 -45 L840 154 L932 334 L932 438 L584 438 L584 682 L840 682 L840 598 L680 598 L720 514 L940 514 L940 766 L484 766 L484 -45 L584 -45 L584 350 L584 350 L584 350 Z" /><glyph glyph-name="" unicode="&#x5de5;" d="M560 650 L904 650 L904 738 L120 738 L120 650 L460 650 L460 42 L92 42 L92 -45 L932 -45 L932 42 L560 42 L560 650 L560 650 L560 650 Z" /><glyph glyph-name="" unicode="&#x516c;" d="M804 298 L700 298 L796 42 L268 42 L566 506 L456 506 L92 -45 L936 -45 L804 298 L804 298 L804 298 ZM746 778 L640 778 L856 370 L968 370 L746 778 L746 778 L746 778 ZM388 770 L280 770 L60 370 L172 370 L388 770 L388 770 L388 770 Z" /><glyph glyph-name="" unicode="&#x5b98;" d="M112 570 L112 -45 L924 -45 L924 222 L212 222 L212 306 L912 306 L912 570 L112 570 L112 570 L112 570 ZM196 614 L196 654 L840 654 L840 614 L940 614 L940 742 L586 742 L566 782 L454 782 L470 742 L96 742 L96 614 L196 614 L196 614 L196 614 ZM824 42 L212 42 L212 134 L824 134 L824 42 L824 42 L824 42 ZM212 394 L212 482 L812 482 L812 394 L212 394 L212 394 L212 394 Z" /><glyph glyph-name="" unicode="&#x7ba1;" d="M920 450 L104 450 L104 -45 L920 -45 L920 178 L204 178 L204 238 L920 238 L920 450 L920 450 L920 450 ZM944 480 L944 588 L592 588 L576 616 L468 616 L484 588 L84 588 L84 480 L180 480 L180 512 L848 512 L848 480 L944 480 L944 480 L944 480 ZM896 620 L848 672 L956 672 L956 744 L692 744 L720 784 L612 784 L516 636 L620 636 L648 672 L732 672 L780 620 L896 620 L896 620 L896 620 ZM460 620 L412 672 L520 672 L520 744 L256 744 L284 784 L176 784 L64 620 L172 620 L212 672 L296 672 L344 620 L460 620 L460 620 L460 620 ZM204 310 L204 378 L820 378 L820 310 L204 310 L204 310 L204 310 ZM820 26 L204 26 L204 106 L820 106 L820 26 L820 26 L820 26 Z" /><glyph glyph-name="" unicode="&#x5e7f;" d="M594 782 L482 782 L498 726 L112 726 L112 154 L60 -45 L158 -45 L212 142 L212 638 L936 638 L936 726 L614 726 L594 782 L594 782 L594 782 Z" /><glyph glyph-name="" unicode="&#x6d77;" d="M284 554 L284 662 L88 774 L88 666 L284 554 L284 554 L284 554 ZM264 330 L264 438 L68 550 L68 442 L264 330 L264 330 L264 330 ZM160 -45 L276 282 L170 282 L56 -45 L160 -45 L160 -45 L160 -45 ZM448 606 L464 658 L936 658 L936 746 L492 746 L500 782 L400 782 L344 606 L448 606 L448 606 L448 606 ZM392 316 L324 316 L324 228 L380 228 L348 -35 L920 -35 L924 228 L960 228 L960 316 L924 316 L928 556 L420 556 L392 316 L392 316 L392 316 ZM580 442 L628 342 L736 342 L688 442 L580 442 L580 442 L580 442 ZM568 200 L628 84 L738 84 L676 200 L568 200 L568 200 L568 200 ZM490 316 L506 468 L828 468 L824 316 L490 316 L490 316 L490 316 ZM462 52 L482 228 L824 228 L820 52 L462 52 L462 52 L462 52 Z" /><glyph glyph-name="" unicode="&#x8017;" d="M932 154 L878 56 L748 56 L748 200 L960 240 L960 332 L748 292 L748 430 L948 458 L948 550 L748 522 L748 672 L940 692 L940 780 L536 744 L536 654 L648 664 L648 506 L524 490 L524 400 L648 416 L648 276 L512 252 L512 158 L648 182 L648 -35 L942 -35 L1000 78 L932 154 L932 154 L932 154 ZM76 738 L76 650 L224 650 L224 570 L90 570 L90 482 L224 482 L224 394 L56 394 L56 306 L224 306 L224 -45 L324 -45 L324 306 L492 306 L492 394 L324 394 L324 482 L456 482 L456 570 L324 570 L324 650 L476 650 L476 738 L324 738 L324 782 L224 782 L224 738 L76 738 L76 738 L76 738 ZM146 -45 L190 246 L94 246 L50 -45 L146 -45 L146 -45 L146 -45 ZM496 2 L458 246 L364 246 L400 2 L496 2 L496 2 L496 2 Z" /><glyph glyph-name="" unicode="&#x53f7;" d="M792 678 L792 574 L232 574 L232 678 L792 678 L792 678 L792 678 ZM132 766 L132 486 L892 486 L892 766 L132 766 L132 766 L132 766 ZM172 42 L212 -45 L880 -45 L916 250 L264 250 L304 322 L936 322 L936 410 L88 410 L88 322 L196 322 L112 162 L808 162 L792 42 L172 42 L172 42 L172 42 Z" /><glyph glyph-name="" unicode="&#x4e92;" d="M750 288 L252 288 L288 436 L776 436 L750 288 L750 288 L750 288 ZM132 204 L736 204 L706 42 L64 42 L64 -45 L958 -45 L958 42 L812 42 L892 520 L308 520 L344 670 L938 670 L938 758 L90 758 L90 670 L242 670 L132 204 L132 204 L132 204 Z" /><glyph glyph-name="" unicode="&#x673a;" d="M486 186 L412 -45 L516 -45 L586 166 L586 682 L764 682 L764 -45 L942 -45 L998 100 L928 176 L876 42 L864 42 L864 770 L486 770 L486 186 L486 186 L486 186 ZM442 602 L442 686 L342 686 L342 782 L242 782 L242 686 L76 686 L76 602 L242 602 L242 -45 L342 -45 L342 304 L444 216 L444 338 L342 424 L342 602 L442 602 L442 602 L442 602 ZM66 2 L158 2 L196 538 L100 538 L66 2 L66 2 L66 2 Z" /><glyph glyph-name="" unicode="&#x5bb6;" d="M644 -45 L644 384 L574 466 L592 506 L776 506 L776 594 L256 594 L256 506 L482 506 L470 480 L108 414 L108 330 L508 402 L538 368 L96 234 L96 142 L544 286 L544 228 L82 48 L82 -43 L544 132 L544 42 L402 42 L450 -45 L644 -45 L644 -45 L644 -45 ZM188 518 L188 658 L836 658 L836 518 L936 518 L936 746 L574 746 L562 790 L454 790 L466 746 L88 746 L88 518 L188 518 L188 518 L188 518 ZM766 438 L660 438 L840 -45 L944 -45 L834 252 L936 342 L936 462 L800 344 L766 438 L766 438 L766 438 Z" /><glyph glyph-name="" unicode="&#x5efa;" d="M384 658 L600 658 L600 610 L328 610 L328 526 L600 526 L600 478 L400 478 L400 394 L600 394 L600 346 L352 346 L352 262 L600 262 L600 210 L332 210 L332 126 L600 126 L600 82 L700 82 L700 126 L940 126 L940 210 L700 210 L700 262 L928 262 L928 346 L700 346 L700 394 L932 394 L932 526 L972 526 L972 610 L932 610 L932 742 L700 742 L700 782 L600 782 L600 742 L384 742 L384 658 L384 658 L384 658 ZM352 42 L248 202 L348 482 L208 482 L352 758 L68 758 L68 670 L200 670 L60 394 L216 394 L172 278 L72 278 L132 178 L48 -45 L148 -45 L200 90 L288 -45 L924 -45 L964 42 L352 42 L352 42 L352 42 ZM832 526 L832 478 L700 478 L700 526 L832 526 L832 526 L832 526 ZM700 610 L700 658 L832 658 L832 610 L700 610 L700 610 L700 610 Z" /><glyph glyph-name="" unicode="&#x7cbe;" d="M476 550 L656 550 L656 498 L444 498 L444 426 L960 426 L960 498 L756 498 L756 550 L932 550 L932 622 L756 622 L756 674 L958 674 L958 746 L756 746 L756 782 L656 782 L656 746 L452 746 L452 674 L656 674 L656 622 L476 622 L476 550 L476 550 L476 550 ZM836 70 L836 22 L776 22 L808 -45 L936 -45 L936 378 L464 378 L464 -45 L564 -45 L564 70 L836 70 L836 70 L836 70 ZM564 258 L564 306 L836 306 L836 258 L564 258 L564 258 L564 258 ZM564 138 L564 186 L836 186 L836 138 L564 138 L564 138 L564 138 ZM296 -45 L296 214 L412 106 L412 226 L296 334 L296 418 L412 418 L412 506 L296 506 L296 782 L196 782 L196 506 L58 506 L58 418 L196 418 L196 -45 L296 -45 L296 -45 L296 -45 ZM136 2 L168 366 L84 366 L52 2 L136 2 L136 2 L136 2 ZM60 758 L88 554 L174 554 L144 758 L60 758 L60 758 L60 758 ZM432 758 L348 758 L316 554 L400 554 L432 758 L432 758 L432 758 Z" /><glyph glyph-name="" unicode="&#x5c31;" d="M552 -45 L648 -45 L756 466 L756 498 L786 498 L786 -45 L972 -45 L1010 80 L944 142 L914 42 L886 42 L886 498 L982 498 L982 586 L756 586 L756 782 L656 782 L656 586 L568 586 L568 498 L656 498 L656 462 L552 -45 L552 -45 L552 -45 ZM104 570 L104 294 L258 294 L258 42 L188 42 L216 -45 L358 -45 L358 294 L508 294 L508 570 L104 570 L104 570 L104 570 ZM84 742 L84 654 L528 654 L528 742 L360 742 L340 782 L232 782 L252 742 L84 742 L84 742 L84 742 ZM146 -25 L206 218 L118 218 L58 -25 L146 -25 L146 -25 L146 -25 ZM408 382 L204 382 L204 482 L408 482 L408 382 L408 382 L408 382 ZM890 752 L794 752 L830 616 L926 616 L890 752 L890 752 L890 752 ZM492 218 L404 218 L446 6 L532 6 L492 218 L492 218 L492 218 Z" /><glyph glyph-name="" unicode="&#x5177;" d="M68 190 L68 106 L956 106 L956 190 L902 190 L902 766 L122 766 L122 190 L68 190 L68 190 L68 190 ZM222 478 L222 538 L802 538 L802 478 L222 478 L222 478 L222 478 ZM802 250 L802 190 L222 190 L222 250 L802 250 L802 250 L802 250 ZM222 334 L222 394 L802 394 L802 334 L222 334 L222 334 L222 334 ZM222 622 L222 682 L802 682 L802 622 L222 622 L222 622 L222 622 ZM624 14 L932 -41 L932 42 L624 100 L624 14 L624 14 L624 14 ZM88 42 L88 -43 L392 12 L392 100 L88 42 L88 42 L88 42 Z" /><glyph glyph-name="" unicode="&#x60e7;" d="M348 774 L348 190 L308 190 L308 102 L956 102 L956 190 L924 190 L924 774 L348 774 L348 774 L348 774 ZM448 482 L448 542 L824 542 L824 482 L448 482 L448 482 L448 482 ZM448 630 L448 686 L824 686 L824 630 L448 630 L448 630 L448 630 ZM824 250 L824 190 L448 190 L448 250 L824 250 L824 250 L824 250 ZM448 338 L448 394 L824 394 L824 338 L448 338 L448 338 L448 338 ZM560 96 L312 42 L312 -41 L560 10 L560 96 L560 96 L560 96 ZM716 10 L956 -41 L956 38 L716 96 L716 10 L716 10 L716 10 ZM114 354 L130 610 L44 610 L28 354 L114 354 L114 354 L114 354 ZM252 782 L152 782 L152 -45 L252 -45 L252 548 L308 494 L308 610 L252 662 L252 782 L252 782 L252 782 Z" /><glyph glyph-name="" unicode="&#x6d6a;" d="M852 86 L956 154 L956 254 L792 146 L684 270 L936 270 L936 742 L724 742 L708 782 L596 782 L612 742 L364 742 L364 60 L316 46 L316 -45 L624 36 L624 130 L464 86 L464 270 L556 270 L836 -45 L964 -45 L852 86 L852 86 L852 86 ZM836 462 L836 358 L464 358 L464 462 L836 462 L836 462 L836 462 ZM464 550 L464 654 L836 654 L836 550 L464 550 L464 550 L464 550 ZM270 282 L164 282 L60 -45 L164 -45 L270 282 L270 282 L270 282 ZM284 550 L284 662 L88 774 L88 662 L284 550 L284 550 L284 550 ZM260 326 L260 438 L64 550 L64 438 L260 326 L260 326 L260 326 Z" /><glyph glyph-name="" unicode="&#x529b;" d="M424 782 L324 782 L324 698 L100 698 L100 610 L324 610 L324 578 L92 -45 L194 -45 L424 568 L424 610 L842 610 L828 42 L596 42 L648 -45 L928 -45 L944 698 L424 698 L424 782 L424 782 L424 782 Z" /><glyph glyph-name="" unicode="&#x8054;" d="M440 -45 L440 42 L488 52 L488 146 L440 136 L440 670 L484 670 L484 758 L60 758 L60 670 L96 670 L96 66 L56 58 L56 -33 L340 22 L340 -45 L440 -45 L440 -45 L440 -45 ZM960 -45 L800 216 L976 216 L976 304 L796 304 L796 510 L956 510 L956 598 L870 598 L956 774 L856 774 L766 598 L532 598 L532 510 L696 510 L696 304 L510 304 L510 216 L684 216 L532 -45 L638 -45 L742 126 L848 -45 L960 -45 L960 -45 L960 -45 ZM196 314 L196 450 L340 450 L340 314 L196 314 L196 314 L196 314 ZM196 538 L196 670 L340 670 L340 538 L196 538 L196 538 L196 538 ZM340 230 L340 114 L196 86 L196 230 L340 230 L340 230 L340 230 ZM650 774 L544 774 L616 626 L720 626 L650 774 L650 774 L650 774 Z" /><glyph glyph-name="" unicode="&#x843d;" d="M300 210 L624 314 L948 206 L948 294 L740 366 L928 422 L928 586 L344 586 L320 398 L416 398 L428 502 L832 502 L832 482 L620 410 L504 446 L504 366 L300 298 L300 210 L300 210 L300 210 ZM328 -45 L924 -45 L924 210 L328 210 L328 -45 L328 -45 L328 -45 ZM396 626 L396 666 L628 666 L628 626 L728 626 L728 666 L944 666 L944 746 L728 746 L728 782 L628 782 L628 746 L396 746 L396 782 L296 782 L296 746 L76 746 L76 666 L296 666 L296 626 L396 626 L396 626 L396 626 ZM424 42 L424 122 L828 122 L828 42 L424 42 L424 42 L424 42 ZM244 186 L140 186 L68 -45 L168 -45 L244 186 L244 186 L244 186 ZM228 226 L228 338 L64 454 L64 342 L228 226 L228 226 L228 226 ZM112 510 L276 394 L276 502 L112 618 L112 510 L112 510 L112 510 Z" /><glyph glyph-name="" unicode="&#x7edc;" d="M68 86 L68 -13 L336 86 L336 182 L68 86 L68 86 L68 86 ZM224 330 L400 602 L296 602 L252 538 L184 538 L280 782 L172 782 L52 454 L196 454 L60 242 L336 242 L336 330 L224 330 L224 330 L224 330 ZM940 -45 L940 266 L412 266 L412 -45 L940 -45 L940 -45 L940 -45 ZM672 418 L940 282 L940 382 L768 470 L940 562 L940 758 L532 758 L534 782 L438 782 L408 490 L512 490 L528 670 L840 670 L840 610 L672 518 L572 570 L572 470 L412 386 L412 286 L672 418 L672 418 L672 418 ZM512 178 L840 178 L840 42 L512 42 L512 178 L512 178 L512 178 Z" /><glyph glyph-name="" unicode="&#x724c;" d="M374 358 L190 358 L190 452 L406 452 L406 540 L370 540 L370 782 L274 782 L274 540 L190 540 L190 758 L90 758 L90 118 L54 -45 L154 -45 L190 110 L190 270 L278 270 L278 -45 L374 -45 L374 358 L374 358 L374 358 ZM618 178 L730 286 L952 286 L952 746 L738 746 L752 786 L646 786 L630 746 L448 746 L448 286 L606 286 L494 178 L618 178 L618 178 L618 178 ZM696 130 L436 130 L436 42 L696 42 L696 -45 L796 -45 L796 42 L960 42 L960 130 L796 130 L796 198 L696 198 L696 130 L696 130 L696 130 ZM746 558 L746 658 L852 658 L852 558 L746 558 L746 558 L746 558 ZM548 558 L548 658 L650 658 L650 558 L548 558 L548 558 L548 558 ZM650 470 L650 366 L548 366 L548 470 L650 470 L650 470 L650 470 ZM852 470 L852 366 L746 366 L746 470 L852 470 L852 470 L852 470 Z" /><glyph glyph-name="" unicode="&#x54c1;" d="M368 42 L188 42 L188 242 L368 242 L368 42 L368 42 L368 42 ZM840 42 L664 42 L664 242 L840 242 L840 42 L840 42 L840 42 ZM212 506 L212 678 L812 678 L812 506 L212 506 L212 506 L212 506 ZM468 330 L88 330 L88 -45 L468 -45 L468 330 L468 330 L468 330 ZM940 -45 L940 330 L564 330 L564 -45 L940 -45 L940 -45 L940 -45 ZM912 418 L912 766 L112 766 L112 418 L912 418 L912 418 L912 418 Z" /><glyph glyph-name="" unicode="&#x5343;" d="M568 670 L912 690 L912 778 L112 734 L112 646 L472 666 L472 350 L76 350 L76 262 L472 262 L472 -45 L568 -45 L568 262 L948 262 L948 350 L568 350 L568 670 L568 670 L568 670 Z" /><glyph glyph-name="" unicode="&#x5168;" d="M80 556 L524 696 L944 552 L944 644 L524 788 L80 648 L80 556 L80 556 L80 556 ZM560 446 L900 446 L900 534 L116 534 L116 446 L464 446 L464 294 L112 294 L112 206 L464 206 L464 42 L90 42 L90 -45 L938 -45 L938 42 L560 42 L560 206 L908 206 L908 294 L560 294 L560 446 L560 446 L560 446 Z" /><glyph glyph-name="" unicode="&#x5546;" d="M708 622 L664 554 L364 554 L332 622 L220 622 L256 554 L92 554 L92 -45 L192 -45 L192 470 L832 470 L832 42 L756 42 L796 -45 L932 -45 L932 554 L772 554 L816 622 L708 622 L708 622 L708 622 ZM724 2 L724 286 L300 286 L300 2 L724 2 L724 2 L724 2 ZM92 658 L934 658 L934 746 L574 746 L554 788 L436 788 L460 746 L92 746 L92 658 L92 658 L92 658 ZM624 90 L400 90 L400 198 L624 198 L624 90 L624 90 L624 90 ZM222 374 L222 280 L450 366 L450 462 L222 374 L222 374 L222 374 ZM580 366 L804 282 L804 382 L580 466 L580 366 L580 366 L580 366 Z" /><glyph glyph-name="" unicode="&#x65f6;" d="M494 566 L802 566 L802 42 L588 42 L636 -45 L902 -45 L902 566 L960 566 L960 654 L902 654 L902 782 L802 782 L802 654 L494 654 L494 566 L494 566 L494 566 ZM612 490 L508 490 L636 194 L740 194 L612 490 L612 490 L612 490 ZM430 -37 L430 738 L86 738 L86 -37 L430 -37 L430 -37 L430 -37 ZM186 408 L186 650 L330 650 L330 408 L186 408 L186 408 L186 408 ZM186 320 L330 320 L330 50 L186 50 L186 320 L186 320 L186 320 Z" /><glyph glyph-name="" unicode="&#x5e02;" d="M542 782 L430 782 L462 714 L92 714 L92 626 L464 626 L464 498 L110 498 L110 12 L210 12 L210 410 L464 410 L464 -45 L564 -45 L564 410 L814 410 L814 100 L684 100 L740 12 L914 12 L914 498 L564 498 L564 626 L936 626 L936 714 L574 714 L542 782 L542 782 L542 782 Z" /><glyph glyph-name="" unicode="&#x6001;" d="M924 288 L924 396 L560 600 L560 634 L944 634 L944 722 L560 722 L560 782 L460 782 L460 722 L84 722 L84 634 L460 634 L460 596 L96 392 L96 288 L312 408 L380 320 L504 320 L400 456 L512 520 L924 288 L924 288 L924 288 ZM896 246 L792 246 L856 -45 L960 -45 L896 246 L896 246 L896 246 ZM228 242 L124 242 L58 -45 L158 -45 L228 242 L228 242 L228 242 ZM552 294 L452 294 L506 126 L610 126 L552 294 L552 294 L552 294 ZM672 210 L672 30 L388 30 L388 238 L288 238 L288 -45 L768 -45 L768 174 L672 210 L672 210 L672 210 Z" /><glyph glyph-name="" unicode="&#x6c70;" d="M592 594 L332 594 L332 506 L592 506 L592 480 L314 -45 L420 -45 L496 92 L566 -45 L672 -45 L550 190 L640 358 L850 -45 L956 -45 L692 480 L692 506 L952 506 L952 594 L692 594 L692 782 L592 782 L592 594 L592 594 L592 594 ZM266 282 L160 282 L70 -45 L174 -45 L266 282 L266 282 L266 282 ZM284 550 L284 662 L88 774 L88 662 L284 550 L284 550 L284 550 ZM256 326 L256 438 L60 550 L60 438 L256 326 L256 326 L256 326 Z" /><glyph glyph-name="" unicode="&#x6dd8;" d="M266 282 L160 282 L78 -45 L184 -45 L266 282 L266 282 L266 282 ZM284 556 L284 666 L88 772 L88 666 L284 556 L284 556 L284 556 ZM264 342 L264 454 L68 566 L68 454 L264 342 L264 342 L264 342 ZM424 620 L436 658 L846 658 L838 42 L780 42 L812 -45 L936 -45 L946 746 L458 746 L466 782 L366 782 L318 620 L424 620 L424 620 L424 620 ZM328 410 L424 410 L432 482 L496 482 L496 358 L324 358 L324 274 L496 274 L496 86 L420 86 L420 198 L324 198 L324 2 L758 2 L758 198 L662 198 L662 86 L592 86 L592 274 L764 274 L764 358 L592 358 L592 482 L742 482 L742 566 L438 566 L440 590 L350 590 L328 410 L328 410 L328 410 Z" /><glyph glyph-name="" unicode="&#x5929;" d="M510 192 L938 -47 L938 58 L562 274 L562 362 L946 362 L946 450 L562 450 L562 672 L926 672 L926 760 L94 760 L94 672 L462 672 L462 450 L78 450 L78 362 L462 362 L462 274 L86 52 L86 -47 L510 192 L510 192 L510 192 Z" /><glyph glyph-name="" unicode="&#x56e2;" d="M88 766 L88 -45 L936 -45 L936 766 L88 766 L88 766 L88 766 ZM836 42 L188 42 L188 678 L836 678 L836 42 L836 42 L836 42 ZM598 546 L244 546 L244 458 L410 458 L240 114 L346 114 L514 458 L598 458 L598 202 L504 202 L544 114 L698 114 L698 458 L784 458 L784 546 L698 546 L698 628 L598 628 L598 546 L598 546 L598 546 Z" /><glyph glyph-name="" unicode="&#x63a8;" d="M456 782 L352 476 L420 476 L420 -45 L516 -45 L516 -27 L952 -27 L952 56 L776 56 L776 184 L940 184 L940 272 L776 272 L776 400 L940 400 L940 488 L776 488 L776 612 L952 612 L952 700 L792 700 L756 784 L648 784 L684 700 L532 700 L560 782 L456 782 L456 782 L456 782 ZM680 56 L516 56 L516 184 L680 184 L680 56 L680 56 L680 56 ZM680 272 L516 272 L516 400 L680 400 L680 272 L680 272 L680 272 ZM680 488 L516 488 L516 612 L680 612 L680 488 L680 488 L680 488 ZM88 -45 L240 -45 L240 266 L308 290 L308 390 L240 366 L240 558 L318 558 L318 646 L240 646 L240 782 L140 782 L140 646 L56 646 L56 558 L140 558 L140 334 L56 302 L56 202 L140 234 L140 42 L52 42 L88 -45 L88 -45 L88 -45 Z" /><glyph glyph-name="" unicode="&#x7f51;" d="M844 42 L742 42 L782 -45 L944 -45 L944 766 L88 766 L88 -45 L188 -45 L188 678 L844 678 L844 42 L844 42 L844 42 ZM524 590 L616 350 L524 110 L628 110 L672 234 L720 110 L824 110 L724 350 L820 590 L716 590 L672 470 L632 590 L524 590 L524 590 L524 590 ZM360 470 L320 590 L216 590 L304 350 L216 110 L316 110 L360 234 L404 110 L508 110 L416 350 L508 590 L400 590 L360 470 L360 470 L360 470 Z" /><glyph glyph-name="" unicode="&#x5fae;" d="M770 430 L794 658 L846 658 L846 494 L810 362 L722 362 L762 234 L670 -45 L766 -45 L814 110 L858 -45 L954 -45 L866 238 L946 494 L946 658 L974 658 L974 742 L802 742 L806 782 L710 782 L682 430 L770 430 L770 430 L770 430 ZM270 482 L642 482 L642 750 L554 750 L554 570 L502 570 L502 778 L414 778 L414 570 L362 570 L362 750 L270 750 L270 482 L270 482 L270 482 ZM494 -41 L666 72 L666 172 L618 138 L618 242 L306 242 L276 -45 L376 -45 L398 158 L522 158 L522 82 L494 58 L494 -41 L494 -41 L494 -41 ZM262 402 L262 318 L638 318 L638 402 L262 402 L262 402 L262 402 ZM218 286 L170 286 L250 518 L146 518 L58 274 L122 274 L122 -45 L218 -45 L218 286 L218 286 L218 286 ZM248 778 L142 778 L62 546 L166 546 L248 778 L248 778 L248 778 Z" /><glyph glyph-name="" unicode="&#x4f0d;" d="M320 670 L522 670 L494 490 L334 490 L334 406 L480 406 L416 42 L300 42 L300 -45 L968 -45 L968 42 L908 42 L920 490 L596 490 L626 670 L944 670 L944 758 L320 758 L320 670 L320 670 L320 670 ZM584 406 L820 406 L808 42 L520 42 L584 406 L584 406 L584 406 ZM282 778 L174 778 L42 414 L130 414 L130 -45 L230 -45 L230 454 L162 454 L282 778 L282 778 L282 778 Z" /><glyph glyph-name="" unicode="&#x52a1;" d="M302 518 L388 488 L84 386 L84 290 L512 434 L940 286 L940 384 L640 486 L912 578 L912 742 L222 742 L226 772 L120 772 L84 514 L194 514 L212 654 L808 654 L808 638 L514 540 L302 618 L302 518 L302 518 L302 518 ZM476 340 L366 340 L328 248 L100 248 L100 164 L280 164 L112 -45 L236 -45 L404 164 L812 164 L804 42 L616 42 L656 -45 L904 -45 L918 248 L442 248 L476 340 L476 340 L476 340 Z" /><glyph glyph-name="" unicode="&#x4e0b;" d="M584 510 L584 394 L864 202 L864 318 L584 510 L584 510 L584 510 ZM516 682 L940 682 L940 770 L84 770 L84 682 L416 682 L416 -45 L516 -45 L516 682 L516 682 L516 682 Z" /><glyph glyph-name="" unicode="&#x4fe1;" d="M928 -41 L928 222 L344 222 L344 -41 L928 -41 L928 -41 L928 -41 ZM828 46 L444 46 L444 134 L828 134 L828 46 L828 46 L828 46 ZM308 650 L964 650 L964 738 L696 738 L676 786 L564 786 L584 738 L308 738 L308 650 L308 650 L308 650 ZM368 570 L368 482 L908 482 L908 570 L368 570 L368 570 L368 570 ZM368 398 L368 310 L908 310 L908 398 L368 398 L368 398 L368 398 ZM164 782 L38 414 L112 414 L112 -45 L212 -45 L212 454 L152 454 L262 782 L164 782 L164 782 L164 782 Z" /><glyph glyph-name="" unicode="&#x517b;" d="M212 178 L380 298 L680 298 L820 178 L956 178 L812 298 L948 298 L948 386 L436 386 L476 472 L928 472 L928 560 L504 560 L532 646 L940 646 L940 734 L788 734 L820 782 L708 782 L676 734 L360 734 L332 782 L220 782 L248 734 L84 734 L84 646 L432 646 L400 560 L96 560 L96 472 L368 472 L328 386 L76 386 L76 298 L236 298 L76 178 L212 178 L212 178 L212 178 ZM184 154 L184 74 L100 -45 L216 -45 L284 58 L284 154 L184 154 L184 154 L184 154 ZM748 -45 L848 -45 L848 154 L748 154 L748 -45 L748 -45 L748 -45 Z" /><glyph glyph-name="" unicode="&#x79fb;" d="M504 782 L428 614 L528 614 L552 666 L840 666 L840 596 L694 548 L656 604 L546 604 L604 518 L438 462 L438 374 L936 538 L936 750 L590 750 L604 782 L504 782 L504 782 L504 782 ZM408 466 L408 554 L316 554 L316 682 L412 688 L412 770 L64 750 L64 666 L220 674 L220 554 L64 554 L64 466 L220 466 L220 -45 L316 -45 L316 210 L408 138 L408 254 L316 326 L316 466 L408 466 L408 466 L408 466 ZM60 2 L150 2 L198 414 L108 414 L60 2 L60 2 L60 2 ZM518 388 L442 220 L542 220 L562 266 L836 266 L836 202 L688 138 L640 194 L524 194 L602 102 L456 38 L456 -57 L936 148 L936 350 L600 350 L618 388 L518 388 L518 388 L518 388 Z" /><glyph glyph-name="" unicode="&#x7ad9;" d="M502 410 L502 -35 L946 -35 L946 410 L734 410 L734 590 L966 590 L966 678 L734 678 L734 782 L634 782 L634 410 L502 410 L502 410 L502 410 ZM68 50 L68 -41 L452 42 L452 136 L378 118 L452 550 L354 550 L276 96 L68 50 L68 50 L68 50 ZM846 52 L602 52 L602 322 L846 322 L846 52 L846 52 L846 52 ZM174 550 L76 550 L132 118 L232 118 L174 550 L174 550 L174 550 ZM60 702 L60 614 L480 614 L480 702 L330 702 L294 782 L182 782 L218 702 L60 702 L60 702 L60 702 Z" /><glyph glyph-name="" unicode="&#x62db;" d="M936 330 L400 330 L400 -37 L936 -37 L936 330 L936 330 L936 330 ZM62 42 L98 -45 L250 -45 L250 266 L344 308 L344 404 L250 362 L250 558 L348 558 L348 646 L250 646 L250 782 L150 782 L150 646 L56 646 L56 558 L150 558 L150 330 L56 292 L56 196 L150 234 L150 42 L62 42 L62 42 L62 42 ZM540 670 L382 388 L492 388 L652 670 L838 670 L830 504 L722 504 L762 416 L922 416 L936 758 L404 758 L404 670 L540 670 L540 670 L540 670 ZM500 50 L500 242 L836 242 L836 50 L500 50 L500 50 L500 50 Z" /><glyph glyph-name="" unicode="&#x76f4;" d="M224 466 L224 518 L800 518 L800 466 L224 466 L224 466 L224 466 ZM800 98 L800 42 L224 42 L224 98 L800 98 L800 98 L800 98 ZM224 182 L224 238 L800 238 L800 182 L224 182 L224 182 L224 182 ZM224 322 L224 382 L800 382 L800 322 L224 322 L224 322 L224 322 ZM564 782 L464 782 L464 742 L94 742 L94 658 L464 658 L464 606 L124 606 L124 42 L76 42 L76 -45 L948 -45 L948 42 L900 42 L900 606 L564 606 L564 658 L928 658 L928 742 L564 742 L564 782 L564 782 L564 782 Z" /><glyph glyph-name="" unicode="&#x5236;" d="M172 590 L180 646 L276 646 L276 522 L76 522 L76 434 L276 434 L276 330 L88 330 L88 -37 L184 -37 L184 242 L276 242 L276 -45 L372 -45 L372 242 L468 242 L468 50 L424 50 L456 -37 L564 -37 L564 330 L372 330 L372 434 L576 434 L576 522 L372 522 L372 646 L560 646 L560 734 L372 734 L372 782 L276 782 L276 734 L192 734 L196 758 L100 758 L80 590 L172 590 L172 590 L172 590 ZM708 -45 L936 -45 L936 782 L836 782 L836 46 L660 46 L708 -45 L708 -45 L708 -45 ZM748 754 L652 754 L652 138 L748 138 L748 754 L748 754 L748 754 Z" /><glyph glyph-name="" unicode="&#x4f17;" d="M484 -45 L592 -45 L744 218 L872 -45 L976 -45 L808 306 L808 474 L704 474 L704 342 L484 -45 L484 -45 L484 -45 ZM88 498 L512 690 L936 506 L936 606 L512 790 L88 598 L88 498 L88 498 L88 498 ZM508 164 L292 336 L292 482 L188 482 L188 334 L72 -45 L168 -45 L264 240 L508 52 L508 164 L508 164 L508 164 Z" /><glyph glyph-name="" unicode="&#x59ff;" d="M932 -49 L932 38 L716 74 L890 110 L890 238 L940 238 L940 326 L318 326 L342 370 L234 370 L210 326 L80 326 L80 238 L174 238 L106 114 L308 74 L92 40 L92 -45 L512 30 L932 -49 L932 -49 L932 -49 ZM786 168 L512 112 L248 166 L284 238 L786 238 L786 168 L786 168 L786 168 ZM420 662 L828 662 L804 590 L908 590 L960 750 L456 750 L468 784 L366 784 L282 594 L388 594 L420 662 L420 662 L420 662 ZM280 386 L612 482 L936 390 L936 486 L656 558 L656 606 L556 606 L556 558 L280 478 L280 386 L280 386 L280 386 ZM80 390 L184 390 L276 582 L172 582 L80 390 L80 390 L80 390 ZM192 778 L76 778 L164 642 L280 642 L192 778 L192 778 L192 778 Z" /></font>
</defs>
</svg>
